<mxfile host="65bd71144e" pages="7">
    <diagram id="dK9gnTSy742ra8u7WNvU" name="Event">
        <mxGraphModel dx="1067" dy="808" grid="1" gridSize="10" guides="1" tooltips="1" connect="1" arrows="1" fold="1" page="1" pageScale="1" pageWidth="1169" pageHeight="827" math="0" shadow="0">
            <root>
                <mxCell id="0"/>
                <mxCell id="1" parent="0"/>
                <mxCell id="F7aqGyoDoytgw2u61I53-1" value="Organisation" style="rounded=1;whiteSpace=wrap;html=1;fillColor=#dae8fc;strokeColor=#6c8ebf;" parent="1" vertex="1">
                    <mxGeometry x="120" y="270" width="920" height="60" as="geometry"/>
                </mxCell>
                <mxCell id="F7aqGyoDoytgw2u61I53-5" value="" style="rounded=0;orthogonalLoop=1;jettySize=auto;html=1;entryX=0.101;entryY=0.991;entryDx=0;entryDy=0;endArrow=none;endFill=0;startArrow=blockThin;startFill=1;entryPerimeter=0;exitX=0.25;exitY=0;exitDx=0;exitDy=0;" parent="1" source="F7aqGyoDoytgw2u61I53-2" target="F7aqGyoDoytgw2u61I53-1" edge="1">
                    <mxGeometry relative="1" as="geometry"/>
                </mxCell>
                <mxCell id="F7aqGyoDoytgw2u61I53-8" style="edgeStyle=orthogonalEdgeStyle;rounded=0;orthogonalLoop=1;jettySize=auto;html=1;entryX=0;entryY=0.5;entryDx=0;entryDy=0;" parent="1" source="F7aqGyoDoytgw2u61I53-2" target="F7aqGyoDoytgw2u61I53-3" edge="1">
                    <mxGeometry relative="1" as="geometry">
                        <mxPoint x="504.5" y="400" as="targetPoint"/>
                    </mxGeometry>
                </mxCell>
                <mxCell id="F7aqGyoDoytgw2u61I53-2" value="Anmeldung" style="rounded=1;whiteSpace=wrap;html=1;fillColor=#d5e8d4;strokeColor=#82b366;" parent="1" vertex="1">
                    <mxGeometry x="159.5" y="370" width="210" height="60" as="geometry"/>
                </mxCell>
                <mxCell id="F7aqGyoDoytgw2u61I53-6" value="" style="edgeStyle=orthogonalEdgeStyle;rounded=0;orthogonalLoop=1;jettySize=auto;html=1;startArrow=blockThin;startFill=1;endArrow=none;endFill=0;" parent="1" source="F7aqGyoDoytgw2u61I53-3" target="F7aqGyoDoytgw2u61I53-1" edge="1">
                    <mxGeometry relative="1" as="geometry"/>
                </mxCell>
                <mxCell id="F7aqGyoDoytgw2u61I53-9" style="edgeStyle=orthogonalEdgeStyle;rounded=0;orthogonalLoop=1;jettySize=auto;html=1;entryX=0;entryY=0.5;entryDx=0;entryDy=0;" parent="1" source="F7aqGyoDoytgw2u61I53-3" target="F7aqGyoDoytgw2u61I53-4" edge="1">
                    <mxGeometry relative="1" as="geometry"/>
                </mxCell>
                <mxCell id="F7aqGyoDoytgw2u61I53-3" value="Event" style="rounded=1;whiteSpace=wrap;html=1;fillColor=#d5e8d4;strokeColor=#82b366;" parent="1" vertex="1">
                    <mxGeometry x="477.5" y="370" width="205" height="60" as="geometry"/>
                </mxCell>
                <mxCell id="F7aqGyoDoytgw2u61I53-7" value="" style="rounded=0;orthogonalLoop=1;jettySize=auto;html=1;entryX=0.859;entryY=0.994;entryDx=0;entryDy=0;startArrow=blockThin;startFill=1;endArrow=none;endFill=0;entryPerimeter=0;exitX=0.5;exitY=0;exitDx=0;exitDy=0;" parent="1" source="F7aqGyoDoytgw2u61I53-4" target="F7aqGyoDoytgw2u61I53-1" edge="1">
                    <mxGeometry relative="1" as="geometry"/>
                </mxCell>
                <mxCell id="F7aqGyoDoytgw2u61I53-10" style="edgeStyle=orthogonalEdgeStyle;rounded=0;orthogonalLoop=1;jettySize=auto;html=1;entryX=0;entryY=0.5;entryDx=0;entryDy=0;exitX=1;exitY=0.5;exitDx=0;exitDy=0;" parent="1" source="F7aqGyoDoytgw2u61I53-4" target="F7aqGyoDoytgw2u61I53-2" edge="1">
                    <mxGeometry relative="1" as="geometry">
                        <Array as="points">
                            <mxPoint x="1040" y="400"/>
                            <mxPoint x="1040" y="490"/>
                            <mxPoint x="120" y="490"/>
                            <mxPoint x="120" y="400"/>
                        </Array>
                    </mxGeometry>
                </mxCell>
                <mxCell id="F7aqGyoDoytgw2u61I53-4" value="Abschluss" style="rounded=1;whiteSpace=wrap;html=1;fillColor=#d5e8d4;strokeColor=#82b366;" parent="1" vertex="1">
                    <mxGeometry x="820" y="370" width="180" height="60" as="geometry"/>
                </mxCell>
                <mxCell id="F7aqGyoDoytgw2u61I53-14" value="&lt;div style=&quot;text-align: left;&quot;&gt;&lt;ul&gt;&lt;li&gt;&lt;span style=&quot;background-color: initial;&quot;&gt;Mailversand an bestehende&lt;/span&gt;&lt;/li&gt;&lt;li&gt;&lt;span style=&quot;background-color: initial;&quot;&gt;Vordruck Laufzettel&lt;/span&gt;&lt;/li&gt;&lt;li&gt;&lt;span style=&quot;background-color: initial;&quot;&gt;(evtl. perforiertes Papier)&lt;/span&gt;&lt;/li&gt;&lt;/ul&gt;&lt;/div&gt;" style="text;html=1;align=center;verticalAlign=top;resizable=0;points=[];autosize=1;strokeColor=none;fillColor=none;" parent="1" vertex="1">
                    <mxGeometry x="159.5" y="518" width="210" height="80" as="geometry"/>
                </mxCell>
                <mxCell id="F7aqGyoDoytgw2u61I53-15" value="&lt;div style=&quot;&quot;&gt;&lt;ul&gt;&lt;li&gt;&lt;span style=&quot;background-color: initial;&quot;&gt;Aufstellen&lt;/span&gt;&lt;/li&gt;&lt;li&gt;&lt;span style=&quot;background-color: initial;&quot;&gt;Anmeldung vor Ort&lt;/span&gt;&lt;/li&gt;&lt;li&gt;&lt;span style=&quot;background-color: initial;&quot;&gt;Läufe / Zeiten&lt;/span&gt;&lt;/li&gt;&lt;li&gt;&lt;span style=&quot;background-color: initial;&quot;&gt;Ranglisten Vorläufe&lt;/span&gt;&lt;/li&gt;&lt;li&gt;Ranglisten Finalläufe&lt;/li&gt;&lt;/ul&gt;&lt;/div&gt;" style="text;html=1;align=left;verticalAlign=top;resizable=0;points=[];autosize=1;strokeColor=none;fillColor=none;" parent="1" vertex="1">
                    <mxGeometry x="477.5" y="518" width="180" height="110" as="geometry"/>
                </mxCell>
                <mxCell id="F7aqGyoDoytgw2u61I53-16" value="&lt;ul style=&quot;border-color: var(--border-color);&quot;&gt;&lt;li style=&quot;border-color: var(--border-color);&quot;&gt;Aufstellen&lt;/li&gt;&lt;li&gt;Abräumen&lt;/li&gt;&lt;/ul&gt;" style="text;html=1;align=left;verticalAlign=top;resizable=0;points=[];autosize=1;" parent="1" vertex="1">
                    <mxGeometry x="477.5" y="140" width="120" height="70" as="geometry"/>
                </mxCell>
                <mxCell id="F7aqGyoDoytgw2u61I53-17" value="&lt;ul style=&quot;border-color: var(--border-color);&quot;&gt;&lt;li style=&quot;border-color: var(--border-color);&quot;&gt;Mailversand mit Link zu den Bildern&lt;/li&gt;&lt;li style=&quot;border-color: var(--border-color);&quot;&gt;Abschlusssitzung&lt;/li&gt;&lt;li style=&quot;border-color: var(--border-color);&quot;&gt;Abrechnung&lt;/li&gt;&lt;li style=&quot;border-color: var(--border-color);&quot;&gt;Protokoll&lt;/li&gt;&lt;/ul&gt;" style="text;html=1;align=left;verticalAlign=top;resizable=0;points=[];autosize=1;" parent="1" vertex="1">
                    <mxGeometry x="820" y="140" width="250" height="100" as="geometry"/>
                </mxCell>
                <mxCell id="F7aqGyoDoytgw2u61I53-18" value="&lt;ul style=&quot;border-color: var(--border-color);&quot;&gt;&lt;li style=&quot;border-color: var(--border-color);&quot;&gt;Taskliste&lt;br&gt;- Termine&lt;br&gt;- Wer&lt;/li&gt;&lt;li style=&quot;border-color: var(--border-color);&quot;&gt;Helferlisten&lt;br&gt;- Tasks pro Posten&lt;/li&gt;&lt;/ul&gt;" style="text;html=1;align=left;verticalAlign=top;resizable=0;points=[];autosize=1;" parent="1" vertex="1">
                    <mxGeometry x="159.5" y="140" width="160" height="110" as="geometry"/>
                </mxCell>
                <mxCell id="7XDv9fXoJmzjnPvhOB6P-1" value="Event" style="text;html=1;align=center;verticalAlign=middle;resizable=0;points=[];autosize=1;strokeColor=none;fillColor=none;fontStyle=1;fontFamily=Verdana;fontSize=26;" parent="1" vertex="1">
                    <mxGeometry x="525" y="30" width="110" height="40" as="geometry"/>
                </mxCell>
            </root>
        </mxGraphModel>
    </diagram>
    <diagram name="Anmeldung" id="ihwTbflT-66I42rcei1r">
        <mxGraphModel dx="2213" dy="808" grid="1" gridSize="10" guides="1" tooltips="1" connect="1" arrows="1" fold="1" page="1" pageScale="1" pageWidth="827" pageHeight="1169" math="0" shadow="0">
            <root>
                <mxCell id="0"/>
                <mxCell id="1" parent="0"/>
                <mxCell id="b3si3N_WaHnK_0e9vWpu-13" value="" style="edgeStyle=orthogonalEdgeStyle;rounded=0;orthogonalLoop=1;jettySize=auto;html=1;entryX=0.5;entryY=0;entryDx=0;entryDy=0;" parent="1" source="b3si3N_WaHnK_0e9vWpu-8" target="b3si3N_WaHnK_0e9vWpu-12" edge="1">
                    <mxGeometry relative="1" as="geometry">
                        <mxPoint x="-158" y="543" as="targetPoint"/>
                    </mxGeometry>
                </mxCell>
                <mxCell id="b3si3N_WaHnK_0e9vWpu-8" value="&lt;b&gt;Daten editierbar anzeigen&lt;br&gt;&lt;/b&gt;&lt;ul&gt;&lt;li style=&quot;text-align: left;&quot;&gt;Name, Vorname&lt;/li&gt;&lt;li style=&quot;text-align: left;&quot;&gt;Ort &lt;/li&gt;&lt;li style=&quot;text-align: left;&quot;&gt;Email&lt;/li&gt;&lt;li style=&quot;text-align: left;&quot;&gt;Tel. Nummer&lt;/li&gt;&lt;/ul&gt;&lt;b&gt;Optionen&lt;/b&gt;&lt;br&gt;&lt;ul&gt;&lt;li style=&quot;text-align: left;&quot;&gt;Bin am … Dabei&lt;/li&gt;&lt;li style=&quot;text-align: left;&quot;&gt;kann dieses Jahr leider nicht&lt;/li&gt;&lt;li style=&quot;text-align: left;&quot;&gt;Bitte aus der Datenbank löschen&lt;/li&gt;&lt;/ul&gt;" style="rounded=1;whiteSpace=wrap;html=1;" parent="1" vertex="1">
                    <mxGeometry x="-288" y="118.5" width="260" height="201" as="geometry"/>
                </mxCell>
                <mxCell id="uyP3Fxlprpef3gYkwW7l-7" value="" style="edgeStyle=orthogonalEdgeStyle;rounded=0;orthogonalLoop=1;jettySize=auto;html=1;" parent="1" source="b3si3N_WaHnK_0e9vWpu-10" target="uyP3Fxlprpef3gYkwW7l-6" edge="1">
                    <mxGeometry relative="1" as="geometry"/>
                </mxCell>
                <mxCell id="b3si3N_WaHnK_0e9vWpu-10" value="Anziegen leeres &lt;br&gt;Formular" style="rounded=1;whiteSpace=wrap;html=1;" parent="1" vertex="1">
                    <mxGeometry x="-736" y="304" width="120" height="60" as="geometry"/>
                </mxCell>
                <mxCell id="b3si3N_WaHnK_0e9vWpu-33" value="&amp;nbsp;JA&amp;nbsp;" style="edgeStyle=orthogonalEdgeStyle;rounded=0;orthogonalLoop=1;jettySize=auto;html=1;exitX=0;exitY=0.5;exitDx=0;exitDy=0;" parent="1" source="b3si3N_WaHnK_0e9vWpu-12" target="b3si3N_WaHnK_0e9vWpu-32" edge="1">
                    <mxGeometry relative="1" as="geometry">
                        <mxPoint x="-237" y="690" as="sourcePoint"/>
                    </mxGeometry>
                </mxCell>
                <mxCell id="uyP3Fxlprpef3gYkwW7l-13" value="" style="edgeStyle=orthogonalEdgeStyle;rounded=0;orthogonalLoop=1;jettySize=auto;html=1;" parent="1" source="b3si3N_WaHnK_0e9vWpu-12" target="b3si3N_WaHnK_0e9vWpu-14" edge="1">
                    <mxGeometry relative="1" as="geometry"/>
                </mxCell>
                <mxCell id="b3si3N_WaHnK_0e9vWpu-12" value="Bin dabei" style="rhombus;whiteSpace=wrap;html=1;rounded=1;" parent="1" vertex="1">
                    <mxGeometry x="-233" y="645" width="150" height="90" as="geometry"/>
                </mxCell>
                <mxCell id="b3si3N_WaHnK_0e9vWpu-17" value="" style="edgeStyle=orthogonalEdgeStyle;rounded=0;orthogonalLoop=1;jettySize=auto;html=1;" parent="1" target="b3si3N_WaHnK_0e9vWpu-16" edge="1">
                    <mxGeometry relative="1" as="geometry">
                        <mxPoint x="-158" y="854" as="sourcePoint"/>
                    </mxGeometry>
                </mxCell>
                <mxCell id="b3si3N_WaHnK_0e9vWpu-36" value="&amp;nbsp;JA&amp;nbsp;" style="edgeStyle=orthogonalEdgeStyle;rounded=0;orthogonalLoop=1;jettySize=auto;html=1;" parent="1" source="b3si3N_WaHnK_0e9vWpu-14" target="b3si3N_WaHnK_0e9vWpu-35" edge="1">
                    <mxGeometry relative="1" as="geometry"/>
                </mxCell>
                <mxCell id="b3si3N_WaHnK_0e9vWpu-14" value="Kann dieses Jahr &lt;br&gt;nicht" style="rhombus;whiteSpace=wrap;html=1;rounded=1;" parent="1" vertex="1">
                    <mxGeometry x="-233" y="773" width="150" height="90" as="geometry"/>
                </mxCell>
                <mxCell id="b3si3N_WaHnK_0e9vWpu-20" value="&amp;nbsp;JA&amp;nbsp;" style="edgeStyle=orthogonalEdgeStyle;rounded=0;orthogonalLoop=1;jettySize=auto;html=1;" parent="1" source="b3si3N_WaHnK_0e9vWpu-16" target="b3si3N_WaHnK_0e9vWpu-19" edge="1">
                    <mxGeometry relative="1" as="geometry"/>
                </mxCell>
                <mxCell id="b3si3N_WaHnK_0e9vWpu-16" value="… löschen" style="rhombus;whiteSpace=wrap;html=1;rounded=1;" parent="1" vertex="1">
                    <mxGeometry x="-233" y="902" width="150" height="90" as="geometry"/>
                </mxCell>
                <mxCell id="uyP3Fxlprpef3gYkwW7l-2" style="edgeStyle=orthogonalEdgeStyle;rounded=0;orthogonalLoop=1;jettySize=auto;html=1;exitX=0;exitY=0.5;exitDx=0;exitDy=0;" parent="1" source="b3si3N_WaHnK_0e9vWpu-19" target="b3si3N_WaHnK_0e9vWpu-39" edge="1">
                    <mxGeometry relative="1" as="geometry"/>
                </mxCell>
                <mxCell id="b3si3N_WaHnK_0e9vWpu-19" value="&lt;ul&gt;&lt;li&gt;Datensatz als gelöscht markieren&lt;/li&gt;&lt;li&gt;Name/Vname mit *** überschreiben&lt;/li&gt;&lt;li&gt;Jahrgang behalten&lt;/li&gt;&lt;li&gt;alle anderen Felder löschen&lt;/li&gt;&lt;/ul&gt;" style="rounded=1;whiteSpace=wrap;html=1;align=left;" parent="1" vertex="1">
                    <mxGeometry x="-559" y="896.5" width="250" height="101" as="geometry"/>
                </mxCell>
                <mxCell id="b3si3N_WaHnK_0e9vWpu-24" value="" style="edgeStyle=orthogonalEdgeStyle;rounded=0;orthogonalLoop=1;jettySize=auto;html=1;" parent="1" source="b3si3N_WaHnK_0e9vWpu-21" target="b3si3N_WaHnK_0e9vWpu-23" edge="1">
                    <mxGeometry relative="1" as="geometry"/>
                </mxCell>
                <mxCell id="b3si3N_WaHnK_0e9vWpu-21" value="Start" style="ellipse;whiteSpace=wrap;html=1;aspect=fixed;" parent="1" vertex="1">
                    <mxGeometry x="-716" y="40" width="80" height="80" as="geometry"/>
                </mxCell>
                <mxCell id="b3si3N_WaHnK_0e9vWpu-26" value="&amp;nbsp;JA&amp;nbsp; " style="edgeStyle=orthogonalEdgeStyle;rounded=0;orthogonalLoop=1;jettySize=auto;html=1;" parent="1" source="b3si3N_WaHnK_0e9vWpu-23" target="b3si3N_WaHnK_0e9vWpu-25" edge="1">
                    <mxGeometry relative="1" as="geometry"/>
                </mxCell>
                <mxCell id="b3si3N_WaHnK_0e9vWpu-28" value="" style="edgeStyle=orthogonalEdgeStyle;rounded=0;orthogonalLoop=1;jettySize=auto;html=1;" parent="1" source="b3si3N_WaHnK_0e9vWpu-23" target="b3si3N_WaHnK_0e9vWpu-10" edge="1">
                    <mxGeometry relative="1" as="geometry"/>
                </mxCell>
                <mxCell id="b3si3N_WaHnK_0e9vWpu-23" value="UserID in &lt;br&gt;Link?" style="rhombus;whiteSpace=wrap;html=1;rounded=1;" parent="1" vertex="1">
                    <mxGeometry x="-751" y="174" width="150" height="90" as="geometry"/>
                </mxCell>
                <mxCell id="b3si3N_WaHnK_0e9vWpu-27" value="&amp;nbsp;JA&amp;nbsp; " style="edgeStyle=orthogonalEdgeStyle;rounded=0;orthogonalLoop=1;jettySize=auto;html=1;" parent="1" source="b3si3N_WaHnK_0e9vWpu-25" target="b3si3N_WaHnK_0e9vWpu-8" edge="1">
                    <mxGeometry relative="1" as="geometry"/>
                </mxCell>
                <mxCell id="b3si3N_WaHnK_0e9vWpu-29" style="edgeStyle=orthogonalEdgeStyle;rounded=0;orthogonalLoop=1;jettySize=auto;html=1;exitX=0.5;exitY=1;exitDx=0;exitDy=0;entryX=1;entryY=0.5;entryDx=0;entryDy=0;" parent="1" source="b3si3N_WaHnK_0e9vWpu-25" target="b3si3N_WaHnK_0e9vWpu-10" edge="1">
                    <mxGeometry relative="1" as="geometry"/>
                </mxCell>
                <mxCell id="b3si3N_WaHnK_0e9vWpu-25" value="Datensatz mit&lt;br&gt;UserID vorhanden?" style="rhombus;whiteSpace=wrap;html=1;rounded=1;" parent="1" vertex="1">
                    <mxGeometry x="-509" y="174" width="150" height="90" as="geometry"/>
                </mxCell>
                <mxCell id="b3si3N_WaHnK_0e9vWpu-40" value="" style="edgeStyle=orthogonalEdgeStyle;rounded=0;orthogonalLoop=1;jettySize=auto;html=1;" parent="1" source="b3si3N_WaHnK_0e9vWpu-30" target="b3si3N_WaHnK_0e9vWpu-39" edge="1">
                    <mxGeometry relative="1" as="geometry"/>
                </mxCell>
                <mxCell id="b3si3N_WaHnK_0e9vWpu-30" value="Datensatz&lt;br&gt;Zu Druck markieren" style="rounded=1;whiteSpace=wrap;html=1;" parent="1" vertex="1">
                    <mxGeometry x="-736" y="660" width="120" height="60" as="geometry"/>
                </mxCell>
                <mxCell id="b3si3N_WaHnK_0e9vWpu-34" value="" style="edgeStyle=orthogonalEdgeStyle;rounded=0;orthogonalLoop=1;jettySize=auto;html=1;" parent="1" source="b3si3N_WaHnK_0e9vWpu-32" target="b3si3N_WaHnK_0e9vWpu-30" edge="1">
                    <mxGeometry relative="1" as="geometry"/>
                </mxCell>
                <mxCell id="b3si3N_WaHnK_0e9vWpu-32" value="Datensatz&lt;br&gt;update" style="whiteSpace=wrap;html=1;rounded=1;" parent="1" vertex="1">
                    <mxGeometry x="-494" y="660" width="120" height="60" as="geometry"/>
                </mxCell>
                <mxCell id="uyP3Fxlprpef3gYkwW7l-3" style="edgeStyle=orthogonalEdgeStyle;rounded=0;orthogonalLoop=1;jettySize=auto;html=1;exitX=0;exitY=0.5;exitDx=0;exitDy=0;entryX=0.75;entryY=0;entryDx=0;entryDy=0;" parent="1" source="b3si3N_WaHnK_0e9vWpu-35" target="b3si3N_WaHnK_0e9vWpu-39" edge="1">
                    <mxGeometry relative="1" as="geometry"/>
                </mxCell>
                <mxCell id="b3si3N_WaHnK_0e9vWpu-35" value="Datensatz&lt;br style=&quot;border-color: var(--border-color);&quot;&gt;update" style="whiteSpace=wrap;html=1;rounded=1;" parent="1" vertex="1">
                    <mxGeometry x="-494" y="788" width="120" height="60" as="geometry"/>
                </mxCell>
                <mxCell id="uyP3Fxlprpef3gYkwW7l-5" style="edgeStyle=orthogonalEdgeStyle;rounded=0;orthogonalLoop=1;jettySize=auto;html=1;exitX=0.5;exitY=1;exitDx=0;exitDy=0;entryX=0.5;entryY=0;entryDx=0;entryDy=0;" parent="1" source="b3si3N_WaHnK_0e9vWpu-39" target="uyP3Fxlprpef3gYkwW7l-4" edge="1">
                    <mxGeometry relative="1" as="geometry"/>
                </mxCell>
                <mxCell id="b3si3N_WaHnK_0e9vWpu-39" value="Bestätigungs-&#xa;Mail schicken" style="rounded=1;whiteSpace=wrap;html=1;" parent="1" vertex="1">
                    <mxGeometry x="-736" y="917" width="120" height="60" as="geometry"/>
                </mxCell>
                <mxCell id="uyP3Fxlprpef3gYkwW7l-4" value="Ende" style="ellipse;whiteSpace=wrap;html=1;aspect=fixed;" parent="1" vertex="1">
                    <mxGeometry x="-716" y="1036" width="80" height="80" as="geometry"/>
                </mxCell>
                <mxCell id="uyP3Fxlprpef3gYkwW7l-8" value="" style="edgeStyle=orthogonalEdgeStyle;rounded=0;orthogonalLoop=1;jettySize=auto;html=1;" parent="1" source="b3si3N_WaHnK_0e9vWpu-10" target="uyP3Fxlprpef3gYkwW7l-6" edge="1">
                    <mxGeometry relative="1" as="geometry">
                        <mxPoint x="-676" y="394" as="sourcePoint"/>
                        <mxPoint x="-676" y="558" as="targetPoint"/>
                    </mxGeometry>
                </mxCell>
                <mxCell id="uyP3Fxlprpef3gYkwW7l-9" value="&amp;nbsp;JA&amp;nbsp;" style="edgeStyle=orthogonalEdgeStyle;rounded=0;orthogonalLoop=1;jettySize=auto;html=1;exitX=1;exitY=0.5;exitDx=0;exitDy=0;entryX=0.5;entryY=0;entryDx=0;entryDy=0;" parent="1" source="uyP3Fxlprpef3gYkwW7l-6" target="b3si3N_WaHnK_0e9vWpu-32" edge="1">
                    <mxGeometry relative="1" as="geometry"/>
                </mxCell>
                <mxCell id="uyP3Fxlprpef3gYkwW7l-11" value="" style="edgeStyle=orthogonalEdgeStyle;rounded=0;orthogonalLoop=1;jettySize=auto;html=1;" parent="1" source="uyP3Fxlprpef3gYkwW7l-6" target="uyP3Fxlprpef3gYkwW7l-10" edge="1">
                    <mxGeometry relative="1" as="geometry"/>
                </mxCell>
                <mxCell id="uyP3Fxlprpef3gYkwW7l-6" value="Ist diese Person&lt;br&gt;in der DB vorhanden&lt;br&gt;Name, Vorname,&lt;br&gt;Jahrgang" style="rhombus;whiteSpace=wrap;html=1;rounded=1;" parent="1" vertex="1">
                    <mxGeometry x="-790" y="408" width="228" height="110" as="geometry"/>
                </mxCell>
                <mxCell id="uyP3Fxlprpef3gYkwW7l-12" value="" style="edgeStyle=orthogonalEdgeStyle;rounded=0;orthogonalLoop=1;jettySize=auto;html=1;" parent="1" source="uyP3Fxlprpef3gYkwW7l-10" target="b3si3N_WaHnK_0e9vWpu-30" edge="1">
                    <mxGeometry relative="1" as="geometry"/>
                </mxCell>
                <mxCell id="uyP3Fxlprpef3gYkwW7l-10" value="Daten prüfen und speichern" style="whiteSpace=wrap;html=1;rounded=1;" parent="1" vertex="1">
                    <mxGeometry x="-736" y="554" width="120" height="60" as="geometry"/>
                </mxCell>
                <mxCell id="Hu1dG8hRqpPh34HqB8CW-1" value="Anmeldung" style="text;html=1;align=center;verticalAlign=middle;resizable=0;points=[];autosize=1;strokeColor=none;fillColor=none;fontStyle=1;fontFamily=Verdana;fontSize=26;" parent="1" vertex="1">
                    <mxGeometry x="-545" y="13" width="190" height="40" as="geometry"/>
                </mxCell>
            </root>
        </mxGraphModel>
    </diagram>
    <diagram id="EM2OaOvcgWPxeU1Ci7dY" name="Mailversand">
        <mxGraphModel dx="1386" dy="808" grid="1" gridSize="10" guides="1" tooltips="1" connect="1" arrows="1" fold="1" page="1" pageScale="1" pageWidth="827" pageHeight="1169" math="0" shadow="0">
            <root>
                <mxCell id="0"/>
                <mxCell id="1" parent="0"/>
                <mxCell id="LN3kxUfggngSH8WofVIZ-3" value="" style="edgeStyle=orthogonalEdgeStyle;rounded=0;orthogonalLoop=1;jettySize=auto;html=1;" parent="1" source="LN3kxUfggngSH8WofVIZ-1" target="LN3kxUfggngSH8WofVIZ-2" edge="1">
                    <mxGeometry relative="1" as="geometry"/>
                </mxCell>
                <mxCell id="LN3kxUfggngSH8WofVIZ-1" value="Start" style="ellipse;whiteSpace=wrap;html=1;" parent="1" vertex="1">
                    <mxGeometry x="150" y="80" width="120" height="80" as="geometry"/>
                </mxCell>
                <mxCell id="2xcgrxVKwkUX2uGy_xRP-2" value="" style="edgeStyle=orthogonalEdgeStyle;rounded=0;orthogonalLoop=1;jettySize=auto;html=1;" parent="1" source="LN3kxUfggngSH8WofVIZ-2" target="2xcgrxVKwkUX2uGy_xRP-1" edge="1">
                    <mxGeometry relative="1" as="geometry"/>
                </mxCell>
                <mxCell id="LN3kxUfggngSH8WofVIZ-2" value="Alle mit Email-Adresse" style="rounded=1;whiteSpace=wrap;html=1;" parent="1" vertex="1">
                    <mxGeometry x="150" y="250" width="120" height="60" as="geometry"/>
                </mxCell>
                <mxCell id="2xcgrxVKwkUX2uGy_xRP-4" value="" style="edgeStyle=orthogonalEdgeStyle;rounded=0;orthogonalLoop=1;jettySize=auto;html=1;" parent="1" source="2xcgrxVKwkUX2uGy_xRP-1" target="2xcgrxVKwkUX2uGy_xRP-3" edge="1">
                    <mxGeometry relative="1" as="geometry"/>
                </mxCell>
                <mxCell id="2xcgrxVKwkUX2uGy_xRP-5" value="" style="edgeStyle=orthogonalEdgeStyle;rounded=0;orthogonalLoop=1;jettySize=auto;html=1;" parent="1" source="2xcgrxVKwkUX2uGy_xRP-1" target="2xcgrxVKwkUX2uGy_xRP-3" edge="1">
                    <mxGeometry relative="1" as="geometry"/>
                </mxCell>
                <mxCell id="2xcgrxVKwkUX2uGy_xRP-7" value="" style="edgeStyle=orthogonalEdgeStyle;rounded=0;orthogonalLoop=1;jettySize=auto;html=1;" parent="1" source="2xcgrxVKwkUX2uGy_xRP-1" target="2xcgrxVKwkUX2uGy_xRP-6" edge="1">
                    <mxGeometry relative="1" as="geometry"/>
                </mxCell>
                <mxCell id="2xcgrxVKwkUX2uGy_xRP-1" value="Anmelde Link erstellen mit UUID" style="whiteSpace=wrap;html=1;rounded=1;" parent="1" vertex="1">
                    <mxGeometry x="150" y="390" width="120" height="60" as="geometry"/>
                </mxCell>
                <mxCell id="2xcgrxVKwkUX2uGy_xRP-9" value="" style="edgeStyle=orthogonalEdgeStyle;rounded=0;orthogonalLoop=1;jettySize=auto;html=1;" parent="1" source="2xcgrxVKwkUX2uGy_xRP-3" target="2xcgrxVKwkUX2uGy_xRP-8" edge="1">
                    <mxGeometry relative="1" as="geometry"/>
                </mxCell>
                <mxCell id="2xcgrxVKwkUX2uGy_xRP-3" value="Mailversand done&lt;br&gt;Datum / Bool?" style="whiteSpace=wrap;html=1;rounded=1;" parent="1" vertex="1">
                    <mxGeometry x="150" y="650" width="120" height="60" as="geometry"/>
                </mxCell>
                <mxCell id="2xcgrxVKwkUX2uGy_xRP-6" value="Mail verschicken" style="whiteSpace=wrap;html=1;rounded=1;" parent="1" vertex="1">
                    <mxGeometry x="150" y="525" width="120" height="60" as="geometry"/>
                </mxCell>
                <mxCell id="2xcgrxVKwkUX2uGy_xRP-10" value="Next" style="edgeStyle=orthogonalEdgeStyle;rounded=0;orthogonalLoop=1;jettySize=auto;html=1;exitX=0;exitY=0.5;exitDx=0;exitDy=0;entryX=0;entryY=0.5;entryDx=0;entryDy=0;" parent="1" source="2xcgrxVKwkUX2uGy_xRP-8" target="2xcgrxVKwkUX2uGy_xRP-1" edge="1">
                    <mxGeometry relative="1" as="geometry">
                        <Array as="points">
                            <mxPoint x="110" y="820"/>
                            <mxPoint x="110" y="420"/>
                        </Array>
                    </mxGeometry>
                </mxCell>
                <mxCell id="2xcgrxVKwkUX2uGy_xRP-13" value="" style="edgeStyle=orthogonalEdgeStyle;rounded=0;orthogonalLoop=1;jettySize=auto;html=1;" parent="1" source="2xcgrxVKwkUX2uGy_xRP-8" target="2xcgrxVKwkUX2uGy_xRP-12" edge="1">
                    <mxGeometry relative="1" as="geometry"/>
                </mxCell>
                <mxCell id="2xcgrxVKwkUX2uGy_xRP-8" value="3 -5 Sekunden&lt;br&gt;warten" style="whiteSpace=wrap;html=1;rounded=1;" parent="1" vertex="1">
                    <mxGeometry x="150" y="790" width="120" height="60" as="geometry"/>
                </mxCell>
                <mxCell id="2xcgrxVKwkUX2uGy_xRP-12" value="Ende" style="ellipse;whiteSpace=wrap;html=1;" parent="1" vertex="1">
                    <mxGeometry x="150" y="880" width="120" height="80" as="geometry"/>
                </mxCell>
                <mxCell id="yhu3QjcJg_0HOsUqGZnZ-1" value="Mail-Versand&lt;br&gt;mit Anmelde-Link" style="text;html=1;align=center;verticalAlign=middle;resizable=0;points=[];autosize=1;strokeColor=none;fillColor=none;fontStyle=1;fontFamily=Verdana;fontSize=26;" parent="1" vertex="1">
                    <mxGeometry x="315" y="20" width="280" height="80" as="geometry"/>
                </mxCell>
                <mxCell id="Fm33BcIfOIOtbqfF3ofW-2" style="edgeStyle=orthogonalEdgeStyle;rounded=0;orthogonalLoop=1;jettySize=auto;html=1;entryX=0.75;entryY=0;entryDx=0;entryDy=0;exitX=0;exitY=0.5;exitDx=0;exitDy=0;" parent="1" source="Fm33BcIfOIOtbqfF3ofW-1" target="2xcgrxVKwkUX2uGy_xRP-6" edge="1">
                    <mxGeometry relative="1" as="geometry"/>
                </mxCell>
                <mxCell id="Fm33BcIfOIOtbqfF3ofW-1" value="&lt;b&gt;Mailvorlage&lt;/b&gt;&lt;br&gt;&lt;div style=&quot;text-align: left;&quot;&gt;&lt;ul&gt;&lt;li&gt;&lt;span style=&quot;background-color: initial;&quot;&gt;Aus DB&lt;/span&gt;&lt;/li&gt;&lt;li&gt;&lt;span style=&quot;background-color: initial;&quot;&gt;Aus TXT in /var/xxx&lt;/span&gt;&lt;/li&gt;&lt;li&gt;&lt;span style=&quot;background-color: initial;&quot;&gt;Jinja Template&lt;/span&gt;&lt;/li&gt;&lt;/ul&gt;&lt;/div&gt;" style="rounded=1;whiteSpace=wrap;html=1;" parent="1" vertex="1">
                    <mxGeometry x="339" y="425" width="150" height="100" as="geometry"/>
                </mxCell>
            </root>
        </mxGraphModel>
    </diagram>
    <diagram id="x6O83jmwIgygGKyE2qzv" name="Laufzettel drucken">
        <mxGraphModel dx="2213" dy="808" grid="1" gridSize="10" guides="1" tooltips="1" connect="1" arrows="1" fold="1" page="1" pageScale="1" pageWidth="827" pageHeight="1169" math="0" shadow="0">
            <root>
                <mxCell id="0"/>
                <mxCell id="1" parent="0"/>
                <mxCell id="_74vGFZOgVzcmCJZhaDD-1" value="Laufzettel drucken" style="text;html=1;align=center;verticalAlign=middle;resizable=0;points=[];autosize=1;strokeColor=none;fillColor=none;fontStyle=1;fontFamily=Verdana;fontSize=26;" parent="1" vertex="1">
                    <mxGeometry x="-600" y="13" width="300" height="40" as="geometry"/>
                </mxCell>
                <mxCell id="gF_UkILJAEO_Vpl6a1qi-1" value="" style="edgeStyle=orthogonalEdgeStyle;rounded=0;orthogonalLoop=1;jettySize=auto;html=1;" parent="1" source="gF_UkILJAEO_Vpl6a1qi-2" target="gF_UkILJAEO_Vpl6a1qi-4" edge="1">
                    <mxGeometry relative="1" as="geometry"/>
                </mxCell>
                <mxCell id="gF_UkILJAEO_Vpl6a1qi-2" value="Start" style="ellipse;whiteSpace=wrap;html=1;" parent="1" vertex="1">
                    <mxGeometry x="-680" y="70" width="120" height="80" as="geometry"/>
                </mxCell>
                <mxCell id="gF_UkILJAEO_Vpl6a1qi-3" value="" style="edgeStyle=orthogonalEdgeStyle;rounded=0;orthogonalLoop=1;jettySize=auto;html=1;entryX=0.5;entryY=0;entryDx=0;entryDy=0;" parent="1" source="gF_UkILJAEO_Vpl6a1qi-4" target="gF_UkILJAEO_Vpl6a1qi-11" edge="1">
                    <mxGeometry relative="1" as="geometry">
                        <mxPoint x="-620" y="380" as="targetPoint"/>
                    </mxGeometry>
                </mxCell>
                <mxCell id="gF_UkILJAEO_Vpl6a1qi-4" value="filter status YES&lt;br&gt;und Änderungsdatum&lt;br&gt;neuer Anmeldestart" style="rounded=1;whiteSpace=wrap;html=1;" parent="1" vertex="1">
                    <mxGeometry x="-680" y="240" width="120" height="60" as="geometry"/>
                </mxCell>
                <mxCell id="gF_UkILJAEO_Vpl6a1qi-9" value="" style="edgeStyle=orthogonalEdgeStyle;rounded=0;orthogonalLoop=1;jettySize=auto;html=1;" parent="1" source="gF_UkILJAEO_Vpl6a1qi-10" target="gF_UkILJAEO_Vpl6a1qi-14" edge="1">
                    <mxGeometry relative="1" as="geometry"/>
                </mxCell>
                <mxCell id="gF_UkILJAEO_Vpl6a1qi-18" style="edgeStyle=orthogonalEdgeStyle;rounded=0;orthogonalLoop=1;jettySize=auto;html=1;exitX=0;exitY=0.5;exitDx=0;exitDy=0;entryX=0;entryY=0.5;entryDx=0;entryDy=0;" parent="1" source="gF_UkILJAEO_Vpl6a1qi-10" target="gF_UkILJAEO_Vpl6a1qi-11" edge="1">
                    <mxGeometry relative="1" as="geometry">
                        <Array as="points">
                            <mxPoint x="-720" y="670"/>
                            <mxPoint x="-720" y="545"/>
                        </Array>
                    </mxGeometry>
                </mxCell>
                <mxCell id="gF_UkILJAEO_Vpl6a1qi-19" value="Next" style="edgeLabel;html=1;align=center;verticalAlign=middle;resizable=0;points=[];" parent="gF_UkILJAEO_Vpl6a1qi-18" vertex="1" connectable="0">
                    <mxGeometry x="0.2848" y="2" relative="1" as="geometry">
                        <mxPoint as="offset"/>
                    </mxGeometry>
                </mxCell>
                <mxCell id="gF_UkILJAEO_Vpl6a1qi-10" value="Status gedruckt" style="whiteSpace=wrap;html=1;rounded=1;" parent="1" vertex="1">
                    <mxGeometry x="-680" y="640" width="120" height="60" as="geometry"/>
                </mxCell>
                <mxCell id="gF_UkILJAEO_Vpl6a1qi-20" style="edgeStyle=orthogonalEdgeStyle;rounded=0;orthogonalLoop=1;jettySize=auto;html=1;exitX=0.5;exitY=1;exitDx=0;exitDy=0;" parent="1" source="gF_UkILJAEO_Vpl6a1qi-11" target="gF_UkILJAEO_Vpl6a1qi-10" edge="1">
                    <mxGeometry relative="1" as="geometry"/>
                </mxCell>
                <mxCell id="gF_UkILJAEO_Vpl6a1qi-11" value="PDF oder driekt&amp;nbsp;&lt;br&gt;drucken" style="whiteSpace=wrap;html=1;rounded=1;" parent="1" vertex="1">
                    <mxGeometry x="-680" y="515" width="120" height="60" as="geometry"/>
                </mxCell>
                <mxCell id="gF_UkILJAEO_Vpl6a1qi-13" value="" style="edgeStyle=orthogonalEdgeStyle;rounded=0;orthogonalLoop=1;jettySize=auto;html=1;" parent="1" source="gF_UkILJAEO_Vpl6a1qi-14" target="gF_UkILJAEO_Vpl6a1qi-15" edge="1">
                    <mxGeometry relative="1" as="geometry"/>
                </mxCell>
                <mxCell id="gF_UkILJAEO_Vpl6a1qi-14" value="schneiden / einordnen" style="whiteSpace=wrap;html=1;rounded=1;" parent="1" vertex="1">
                    <mxGeometry x="-680" y="780" width="120" height="60" as="geometry"/>
                </mxCell>
                <mxCell id="gF_UkILJAEO_Vpl6a1qi-15" value="Ende" style="ellipse;whiteSpace=wrap;html=1;" parent="1" vertex="1">
                    <mxGeometry x="-680" y="870" width="120" height="80" as="geometry"/>
                </mxCell>
                <mxCell id="gF_UkILJAEO_Vpl6a1qi-16" style="edgeStyle=orthogonalEdgeStyle;rounded=0;orthogonalLoop=1;jettySize=auto;html=1;entryX=0.75;entryY=0;entryDx=0;entryDy=0;exitX=0;exitY=0.5;exitDx=0;exitDy=0;" parent="1" source="gF_UkILJAEO_Vpl6a1qi-17" target="gF_UkILJAEO_Vpl6a1qi-11" edge="1">
                    <mxGeometry relative="1" as="geometry"/>
                </mxCell>
                <mxCell id="gF_UkILJAEO_Vpl6a1qi-17" value="&lt;b&gt;Druckvorlage&lt;/b&gt;&lt;br&gt;&lt;div style=&quot;text-align: left;&quot;&gt;&lt;ul&gt;&lt;li&gt;&lt;span style=&quot;background-color: initial;&quot;&gt;Aus DB&lt;/span&gt;&lt;/li&gt;&lt;li&gt;&lt;span style=&quot;background-color: initial;&quot;&gt;Aus TXT in /var/xxx&lt;/span&gt;&lt;/li&gt;&lt;li&gt;&lt;span style=&quot;background-color: initial;&quot;&gt;Jinja Template&lt;/span&gt;&lt;/li&gt;&lt;/ul&gt;&lt;/div&gt;" style="rounded=1;whiteSpace=wrap;html=1;" parent="1" vertex="1">
                    <mxGeometry x="-491" y="415" width="150" height="100" as="geometry"/>
                </mxCell>
            </root>
        </mxGraphModel>
    </diagram>
    <diagram name="Netzwerk-OfflineServer" id="JAXtR--Trft5fQNto8VI">
        <mxGraphModel dx="1067" dy="808" grid="1" gridSize="10" guides="1" tooltips="1" connect="1" arrows="1" fold="1" page="1" pageScale="1" pageWidth="1169" pageHeight="827" math="0" shadow="0">
            <root>
                <mxCell id="cveTpfCOcsH0RJCDuLTn-0"/>
                <mxCell id="cveTpfCOcsH0RJCDuLTn-1" parent="cveTpfCOcsH0RJCDuLTn-0"/>
                <UserObject label="&lt;div style=&quot;font-size: 1px&quot;&gt;&lt;font style=&quot;font-size:16.93px;font-family:Calibri;color:#5b9bd5;direction:ltr;letter-spacing:0px;line-height:120%;opacity:1&quot;&gt;SSID&lt;br/&gt;muhHTE99&lt;br/&gt;&lt;/font&gt;&lt;/div&gt;" tags="Hintergrund" id="cveTpfCOcsH0RJCDuLTn-35">
                    <mxCell style="verticalAlign=middle;align=center;overflow=width;vsdxID=154;fillColor=none;gradientColor=none;shape=stencil(nZBLDoAgDERP0z3SIyjew0SURgSD+Lu9kMZoXLhwN9O+tukAlrNpJg1SzDH4QW/URgNYgZTkjA4UkwJUgGXng+6DX1zLfmoymdXo17xh5zmRJ6Q42BWCfc2oJfdAr+Yv+AP9Cb7OJ3H/2JG1HNGz/84klThPVCc=);strokeColor=none;points=[];labelBackgroundColor=none;rounded=0;html=1;whiteSpace=wrap;" parent="cveTpfCOcsH0RJCDuLTn-1" vertex="1">
                        <mxGeometry x="203.5" y="150" width="121" height="44" as="geometry"/>
                    </mxCell>
                </UserObject>
                <UserObject label="&lt;div style=&quot;font-size: 1px&quot;&gt;&lt;font style=&quot;font-size:16.93px;font-family:Calibri;color:#5b9bd5;direction:ltr;letter-spacing:0px;line-height:120%;opacity:1&quot;&gt;&lt;b&gt;PC-Anmeldung&lt;/b&gt;&lt;br&gt;&lt;/font&gt;&lt;/div&gt;" tags="Hintergrund" id="cveTpfCOcsH0RJCDuLTn-36">
                    <mxCell style="verticalAlign=middle;align=center;overflow=width;vsdxID=155;fillColor=none;gradientColor=none;shape=stencil(nZBLDoAgDERP0z3SIyjew0SURgSD+Lu9kMZoXLhwN9O+tukAlrNpJg1SzDH4QW/URgNYgZTkjA4UkwJUgGXng+6DX1zLfmoymdXo17xh5zmRJ6Q42BWCfc2oJfdAr+Yv+AP9Cb7OJ3H/2JG1HNGz/84klThPVCc=);strokeColor=none;points=[];labelBackgroundColor=none;rounded=0;html=1;whiteSpace=wrap;" parent="cveTpfCOcsH0RJCDuLTn-1" vertex="1">
                        <mxGeometry x="700.29" y="300" width="121" height="44" as="geometry"/>
                    </mxCell>
                </UserObject>
                <UserObject label="&lt;div style=&quot;font-size: 1px&quot;&gt;&lt;font style=&quot;font-size: 16.93px; font-family: Calibri; color: rgb(91, 155, 213); direction: ltr; letter-spacing: 0px; line-height: 120%; opacity: 1;&quot;&gt;&lt;b&gt;PC-Rechnungsbüro&amp;nbsp;&lt;/b&gt;&lt;/font&gt;&lt;/div&gt;&lt;div style=&quot;text-align: left;&quot;&gt;&lt;font style=&quot;font-family: Calibri; color: rgb(91, 155, 213); direction: ltr; letter-spacing: 0px; line-height: 120%; opacity: 1; font-size: 14px;&quot;&gt;&lt;b style=&quot;&quot;&gt;&lt;br&gt;&lt;/b&gt;&lt;/font&gt;&lt;/div&gt;&lt;div style=&quot;text-align: left;&quot;&gt;&lt;font style=&quot;font-family: Calibri; color: rgb(91, 155, 213); direction: ltr; letter-spacing: 0px; line-height: 120%; opacity: 1; font-size: 14px;&quot;&gt;&lt;b style=&quot;&quot;&gt;VM, 192.168.175.100&lt;br&gt;mit Docker&lt;/b&gt;&lt;/font&gt;&lt;/div&gt;&lt;div style=&quot;text-align: left;&quot;&gt;&lt;font style=&quot;font-family: Calibri; color: rgb(91, 155, 213); direction: ltr; letter-spacing: 0px; line-height: 120%; opacity: 1; font-size: 14px;&quot;&gt;- reverse porxy&lt;/font&gt;&lt;/div&gt;&lt;div style=&quot;text-align: left;&quot;&gt;&lt;font style=&quot;font-family: Calibri; color: rgb(91, 155, 213); direction: ltr; letter-spacing: 0px; line-height: 120%; opacity: 1; font-size: 14px;&quot;&gt;- Web-Server&lt;/font&gt;&lt;/div&gt;&lt;div style=&quot;text-align: left;&quot;&gt;&lt;font style=&quot;font-family: Calibri; color: rgb(91, 155, 213); direction: ltr; letter-spacing: 0px; line-height: 120%; opacity: 1; font-size: 14px;&quot;&gt;- redis&lt;/font&gt;&lt;/div&gt;&lt;div style=&quot;text-align: left;&quot;&gt;&lt;font style=&quot;font-family: Calibri; color: rgb(91, 155, 213); direction: ltr; letter-spacing: 0px; line-height: 120%; opacity: 1; font-size: 14px;&quot;&gt;- celery worker&lt;/font&gt;&lt;/div&gt;" tags="Hintergrund" id="cveTpfCOcsH0RJCDuLTn-37">
                    <mxCell style="verticalAlign=middle;align=center;overflow=width;vsdxID=162;fillColor=none;gradientColor=none;shape=stencil(nZBLDoAgDERP0z3SIyjew0SURgSD+Lu9kMZoXLhwN9O+tukAlrNpJg1SzDH4QW/URgNYgZTkjA4UkwJUgGXng+6DX1zLfmoymdXo17xh5zmRJ6Q42BWCfc2oJfdAr+Yv+AP9Cb7OJ3H/2JG1HNGz/84klThPVCc=);strokeColor=none;points=[];labelBackgroundColor=none;rounded=0;html=1;whiteSpace=wrap;" parent="cveTpfCOcsH0RJCDuLTn-1" vertex="1">
                        <mxGeometry x="403.5" y="250" width="156.5" height="120" as="geometry"/>
                    </mxCell>
                </UserObject>
                <UserObject label="&lt;div style=&quot;font-size: 1px&quot;&gt;&lt;font style=&quot;font-size:19.76px;font-family:Calibri;color:#ffffff;direction:ltr;letter-spacing:0px;line-height:120%;opacity:1&quot;&gt;&lt;b&gt;Netzwerk Layout (Offline-Server) - Schnällschte Jegenstorfer&lt;br&gt;&lt;/b&gt;&lt;/font&gt;&lt;/div&gt;" tags="Hintergrund" id="cveTpfCOcsH0RJCDuLTn-38">
                    <mxCell style="verticalAlign=middle;align=center;overflow=width;vsdxID=163;fillColor=#a5a5a5;gradientColor=none;shape=stencil(nZBLDoAgDERP0z3SIyjew0SURgSD+Lu9kMZoXLhwN9O+tukAlrNpJg1SzDH4QW/URgNYgZTkjA4UkwJUgGXng+6DX1zLfmoymdXo17xh5zmRJ6Q42BWCfc2oJfdAr+Yv+AP9Cb7OJ3H/2JG1HNGz/84klThPVCc=);strokeColor=#ffffff;points=[];labelBackgroundColor=none;rounded=0;html=1;whiteSpace=wrap;" parent="cveTpfCOcsH0RJCDuLTn-1" vertex="1">
                        <mxGeometry x="25" y="24" width="1137" height="36" as="geometry"/>
                    </mxCell>
                </UserObject>
                <UserObject label="&lt;div style=&quot;font-size: 1px&quot;&gt;&lt;font style=&quot;font-size:16.93px;font-family:Calibri;color:#41729d;direction:ltr;letter-spacing:0px;line-height:120%;opacity:1&quot;&gt;&lt;b&gt;P1&lt;br/&gt;&lt;/b&gt;&lt;/font&gt;&lt;/div&gt;" tags="Verbinder" id="cveTpfCOcsH0RJCDuLTn-39">
                    <mxCell style="vsdxID=152;edgeStyle=none;startArrow=none;endArrow=none;startSize=5;endSize=5;strokeWidth=4;strokeColor=#5088bb;spacingTop=0;spacingBottom=0;spacingLeft=0;spacingRight=0;verticalAlign=middle;html=1;labelBackgroundColor=#FFFFFF;rounded=0;align=center;overflow=width;exitX=0.5;exitY=0;exitDx=0;exitDy=0;exitPerimeter=0;entryX=0.5;entryY=1;entryDx=0;entryDy=0;entryPerimeter=0;" parent="cveTpfCOcsH0RJCDuLTn-1" target="5mv5IfYHRhFEEYhxDe_v-1" edge="1">
                        <mxGeometry relative="1" as="geometry">
                            <mxPoint x="24" y="28" as="offset"/>
                            <Array as="points"/>
                            <mxPoint x="264" y="391.4000000000001" as="sourcePoint"/>
                        </mxGeometry>
                    </mxCell>
                </UserObject>
                <UserObject label="&lt;div style=&quot;font-size: 1px&quot;&gt;&lt;p style=&quot;text-align:center;margin-left:0;margin-right:0;margin-top:0px;margin-bottom:0px;text-indent:0;vertical-align:middle;direction:ltr;&quot;&gt;&lt;font style=&quot;font-size:16.93px;font-family:Calibri;color:#41729d;direction:ltr;letter-spacing:0px;line-height:120%;opacity:1&quot;&gt;192.168.176.1/24&lt;br/&gt;Kein GW&lt;/font&gt;&lt;font style=&quot;font-size:16.93px;font-family:Calibri;color:#41729d;direction:ltr;letter-spacing:0px;line-height:120%;opacity:1&quot;&gt;&lt;b&gt;&lt;br/&gt;&lt;/b&gt;&lt;/font&gt;&lt;/p&gt;&lt;/div&gt;" tags="Verbinder" id="cveTpfCOcsH0RJCDuLTn-40">
                    <mxCell style="vsdxID=52;edgeStyle=none;startArrow=none;endArrow=none;startSize=5;endSize=5;strokeWidth=4;strokeColor=#5088bb;spacingTop=0;spacingBottom=0;spacingLeft=0;spacingRight=0;verticalAlign=middle;html=1;labelBackgroundColor=#FFFFFF;rounded=0;align=center;overflow=width;" parent="cveTpfCOcsH0RJCDuLTn-1" source="5mv5IfYHRhFEEYhxDe_v-6" target="5mv5IfYHRhFEEYhxDe_v-5" edge="1">
                        <mxGeometry relative="1" as="geometry">
                            <mxPoint x="1" y="2" as="offset"/>
                            <Array as="points"/>
                        </mxGeometry>
                    </mxCell>
                </UserObject>
                <mxCell id="cveTpfCOcsH0RJCDuLTn-41" value="&lt;b style=&quot;font-size: 12px;&quot;&gt;WLAN -&amp;gt; LAN&lt;br&gt;Bridge&lt;/b&gt;" style="edgeLabel;html=1;align=center;verticalAlign=middle;resizable=0;points=[];" parent="cveTpfCOcsH0RJCDuLTn-40" vertex="1" connectable="0">
                    <mxGeometry x="-0.5071" y="2" relative="1" as="geometry">
                        <mxPoint x="7" as="offset"/>
                    </mxGeometry>
                </mxCell>
                <UserObject label="&lt;div style=&quot;font-size: 1px&quot;&gt;&lt;font style=&quot;font-size:16.93px;font-family:Calibri;color:#41729d;direction:ltr;letter-spacing:0px;line-height:120%;opacity:1&quot;&gt;&lt;b&gt;P3&lt;br/&gt;&lt;/b&gt;&lt;/font&gt;&lt;/div&gt;" tags="Verbinder" id="cveTpfCOcsH0RJCDuLTn-42">
                    <mxCell style="vsdxID=146;edgeStyle=none;startArrow=none;endArrow=none;startSize=5;endSize=5;strokeWidth=4;strokeColor=#5088bb;spacingTop=0;spacingBottom=0;spacingLeft=0;spacingRight=0;verticalAlign=middle;html=1;labelBackgroundColor=#FFFFFF;rounded=0;align=center;overflow=width;exitX=1;exitY=0.5;exitDx=0;exitDy=0;exitPerimeter=0;" parent="cveTpfCOcsH0RJCDuLTn-1" target="5mv5IfYHRhFEEYhxDe_v-3" edge="1">
                        <mxGeometry relative="1" as="geometry">
                            <mxPoint x="-15" y="-13" as="offset"/>
                            <Array as="points"/>
                            <mxPoint x="299" y="426.4000000000001" as="sourcePoint"/>
                        </mxGeometry>
                    </mxCell>
                </UserObject>
                <UserObject label="&lt;div style=&quot;font-size: 1px&quot;&gt;&lt;font style=&quot;font-size:16.93px;font-family:Calibri;color:#41729d;direction:ltr;letter-spacing:0px;line-height:120%;opacity:1&quot;&gt;&lt;b&gt;P2&lt;br/&gt;&lt;/b&gt;&lt;/font&gt;&lt;/div&gt;" tags="Verbinder" id="cveTpfCOcsH0RJCDuLTn-43">
                    <mxCell style="vsdxID=147;edgeStyle=none;startArrow=none;endArrow=none;startSize=5;endSize=5;strokeWidth=4;strokeColor=#5088bb;spacingTop=0;spacingBottom=0;spacingLeft=0;spacingRight=0;verticalAlign=middle;html=1;labelBackgroundColor=#FFFFFF;rounded=0;align=center;overflow=width;exitX=1;exitY=0.73;exitDx=0;exitDy=0;exitPerimeter=0;entryX=0;entryY=0.5;entryDx=0;entryDy=0;entryPerimeter=0;" parent="cveTpfCOcsH0RJCDuLTn-1" source="5mv5IfYHRhFEEYhxDe_v-4" target="Au8iK73xN5RUZrp42HGQ-2" edge="1">
                        <mxGeometry relative="1" as="geometry">
                            <mxPoint x="24" y="-54" as="offset"/>
                            <Array as="points"/>
                            <mxPoint x="279" y="578" as="sourcePoint"/>
                            <mxPoint x="220" y="430" as="targetPoint"/>
                        </mxGeometry>
                    </mxCell>
                </UserObject>
                <mxCell id="5mv5IfYHRhFEEYhxDe_v-1" value="" style="points=[[0.03,0.36,0],[0.18,0,0],[0.5,0.34,0],[0.82,0,0],[0.97,0.36,0],[1,0.67,0],[0.975,0.975,0],[0.5,1,0],[0.025,0.975,0],[0,0.67,0]];verticalLabelPosition=bottom;sketch=0;html=1;verticalAlign=top;aspect=fixed;align=center;pointerEvents=1;shape=mxgraph.cisco19.wireless_access_point;fillColor=#005073;strokeColor=none;" parent="cveTpfCOcsH0RJCDuLTn-1" vertex="1">
                    <mxGeometry x="229" y="259" width="70" height="70" as="geometry"/>
                </mxCell>
                <mxCell id="5mv5IfYHRhFEEYhxDe_v-2" value="" style="points=[[0,0.58,0],[0.09,0.58,0],[0.36,0.39,0],[0.64,0.195,0],[0.91,0,0],[1,0,0],[1,0.25,0],[1,0.5,0],[1,0.75,0],[1,1,0],[0,1,0],[0.09,1,0],[0.36,1,0],[0.64,1,0],[0.91,1,0],[0,0.79,0]];verticalLabelPosition=bottom;sketch=0;html=1;verticalAlign=top;aspect=fixed;align=center;pointerEvents=1;shape=mxgraph.cisco19.wifi_indicator;fillColor=#005073;strokeColor=none;" parent="cveTpfCOcsH0RJCDuLTn-1" vertex="1">
                    <mxGeometry x="254" y="244" width="20" height="20" as="geometry"/>
                </mxCell>
                <mxCell id="5mv5IfYHRhFEEYhxDe_v-3" value="192.168.175.20" style="points=[[0.13,0.02,0],[0.5,0,0],[0.87,0.02,0],[0.885,0.4,0],[0.985,0.985,0],[0.5,1,0],[0.015,0.985,0],[0.115,0.4,0]];verticalLabelPosition=bottom;sketch=0;html=1;verticalAlign=top;aspect=fixed;align=center;pointerEvents=1;shape=mxgraph.cisco19.laptop;fillColor=#005073;strokeColor=none;" parent="cveTpfCOcsH0RJCDuLTn-1" vertex="1">
                    <mxGeometry x="418" y="392.8" width="92" height="64.4" as="geometry"/>
                </mxCell>
                <mxCell id="5mv5IfYHRhFEEYhxDe_v-4" value="LP010 (neu)&lt;br style=&quot;border-color: var(--border-color); color: rgb(30, 74, 115); font-family: Verdana; font-size: 11px;&quot;&gt;&lt;span style=&quot;color: rgb(30, 74, 115); font-family: Verdana; font-size: 11px;&quot;&gt;192.168.175.10/24&lt;br&gt;DHCP Reservation&lt;br&gt;&lt;/span&gt;" style="points=[[0.22,0.185,0],[0.5,0,0],[0.78,0.185,0],[0.975,0.49,0],[1,0.73,0],[0.975,0.97,0],[0.5,1,0],[0.025,0.97,0],[0,0.73,0],[0.025,0.49,0]];verticalLabelPosition=bottom;sketch=0;html=1;verticalAlign=top;aspect=fixed;align=center;pointerEvents=1;shape=mxgraph.cisco19.printer;fillColor=#005073;strokeColor=none;" parent="cveTpfCOcsH0RJCDuLTn-1" vertex="1">
                    <mxGeometry x="80" y="379" width="70" height="63" as="geometry"/>
                </mxCell>
                <mxCell id="5mv5IfYHRhFEEYhxDe_v-5" value="&lt;div style=&quot;border-color: var(--border-color); font-family: Verdana; font-size: 11px;&quot;&gt;&lt;font style=&quot;border-color: var(--border-color); color: rgb(30, 74, 115); direction: ltr; letter-spacing: 0px; line-height: 13.2px; opacity: 1;&quot;&gt;LP011&lt;br style=&quot;border-color: var(--border-color);&quot;&gt;192.168.175.11/24&lt;br style=&quot;border-color: var(--border-color);&quot;&gt;&lt;/font&gt;&lt;/div&gt;&lt;div style=&quot;border-color: var(--border-color); font-family: Verdana; font-size: 11px;&quot;&gt;&lt;font style=&quot;border-color: var(--border-color); color: rgb(30, 74, 115); direction: ltr; letter-spacing: 0px; line-height: 13.2px; opacity: 1;&quot;&gt;DHCP Reservation&lt;/font&gt;&lt;/div&gt;" style="points=[[0.22,0.185,0],[0.5,0,0],[0.78,0.185,0],[0.975,0.49,0],[1,0.73,0],[0.975,0.97,0],[0.5,1,0],[0.025,0.97,0],[0,0.73,0],[0.025,0.49,0]];verticalLabelPosition=bottom;sketch=0;html=1;verticalAlign=top;aspect=fixed;align=center;pointerEvents=1;shape=mxgraph.cisco19.printer;fillColor=#005073;strokeColor=none;" parent="cveTpfCOcsH0RJCDuLTn-1" vertex="1">
                    <mxGeometry x="980" y="393.5" width="70" height="63" as="geometry"/>
                </mxCell>
                <mxCell id="5mv5IfYHRhFEEYhxDe_v-6" value="&lt;font style=&quot;font-size: 12px;&quot;&gt;192.168.175.21/24&lt;br&gt;DHCP Reservation&lt;br style=&quot;border-color: var(--border-color); color: rgb(30, 74, 115); font-family: Verdana;&quot;&gt;&lt;span style=&quot;color: rgb(30, 74, 115); font-family: Verdana;&quot;&gt;User: sj&lt;/span&gt;&lt;/font&gt;" style="points=[[0.13,0.02,0],[0.5,0,0],[0.87,0.02,0],[0.885,0.4,0],[0.985,0.985,0],[0.5,1,0],[0.015,0.985,0],[0.115,0.4,0]];verticalLabelPosition=bottom;sketch=0;html=1;verticalAlign=top;aspect=fixed;align=center;pointerEvents=1;shape=mxgraph.cisco19.laptop;fillColor=#005073;strokeColor=none;" parent="cveTpfCOcsH0RJCDuLTn-1" vertex="1">
                    <mxGeometry x="710" y="392.4" width="92.57" height="64.8" as="geometry"/>
                </mxCell>
                <mxCell id="5mv5IfYHRhFEEYhxDe_v-10" value="" style="points=[[0,0.58,0],[0.09,0.58,0],[0.36,0.39,0],[0.64,0.195,0],[0.91,0,0],[1,0,0],[1,0.25,0],[1,0.5,0],[1,0.75,0],[1,1,0],[0,1,0],[0.09,1,0],[0.36,1,0],[0.64,1,0],[0.91,1,0],[0,0.79,0]];verticalLabelPosition=bottom;sketch=0;html=1;verticalAlign=top;aspect=fixed;align=center;pointerEvents=1;shape=mxgraph.cisco19.wifi_indicator;fillColor=#005073;strokeColor=none;" parent="cveTpfCOcsH0RJCDuLTn-1" vertex="1">
                    <mxGeometry x="746.28" y="370" width="20" height="20" as="geometry"/>
                </mxCell>
                <mxCell id="Au8iK73xN5RUZrp42HGQ-2" value="&lt;font style=&quot;scrollbar-color: rgb(226, 226, 226) rgb(251, 251, 251); font-family: Verdana; font-size: 11px; letter-spacing: 0px; text-wrap-mode: wrap; background-color: rgb(255, 255, 255); direction: ltr; line-height: 13.2px; opacity: 1; color: rgb(30, 74, 115);&quot;&gt;&lt;b style=&quot;color: rgb(63, 63, 63); scrollbar-color: rgb(226, 226, 226) rgb(251, 251, 251);&quot;&gt;Router&lt;br style=&quot;color: rgb(63, 63, 63); scrollbar-color: rgb(226, 226, 226) rgb(251, 251, 251);&quot;&gt;&lt;/b&gt;&lt;/font&gt;&lt;font style=&quot;scrollbar-color: rgb(226, 226, 226) rgb(251, 251, 251); font-family: Verdana; font-size: 11px; letter-spacing: 0px; text-wrap-mode: wrap; background-color: rgb(255, 255, 255); direction: ltr; line-height: 13.2px; opacity: 1; color: rgb(30, 74, 115);&quot;&gt;DHCP/DNS Server&lt;br style=&quot;color: rgb(63, 63, 63); scrollbar-color: rgb(226, 226, 226) rgb(251, 251, 251);&quot;&gt;VLAN 175, 192.168.175.1/24&lt;/font&gt;" style="sketch=0;points=[[0.5,0,0],[1,0.5,0],[0.5,1,0],[0,0.5,0],[0.145,0.145,0],[0.8555,0.145,0],[0.855,0.8555,0],[0.145,0.855,0]];verticalLabelPosition=bottom;html=1;verticalAlign=top;aspect=fixed;align=center;pointerEvents=1;shape=mxgraph.cisco19.rect;prIcon=router;fillColor=#FAFAFA;strokeColor=#005073;" parent="cveTpfCOcsH0RJCDuLTn-1" vertex="1">
                    <mxGeometry x="230" y="391" width="69" height="69" as="geometry"/>
                </mxCell>
            </root>
        </mxGraphModel>
    </diagram>
    <diagram name="Netzwerk-OnlineServer" id="cjyEXx04qpRmelDxpFP0">
        <mxGraphModel dx="1386" dy="808" grid="1" gridSize="10" guides="1" tooltips="1" connect="1" arrows="1" fold="1" page="1" pageScale="1" pageWidth="1169" pageHeight="827" math="0" shadow="0">
            <root>
                <mxCell id="PBUlfDyBkOcBYVJKKN0a-0"/>
                <mxCell id="PBUlfDyBkOcBYVJKKN0a-1" parent="PBUlfDyBkOcBYVJKKN0a-0"/>
                <UserObject label="&lt;div style=&quot;font-size: 1px&quot;&gt;&lt;font style=&quot;font-size:16.93px;font-family:Calibri;color:#5b9bd5;direction:ltr;letter-spacing:0px;line-height:120%;opacity:1&quot;&gt;SSID&lt;br/&gt;muhHTE99&lt;br/&gt;&lt;/font&gt;&lt;/div&gt;" tags="Hintergrund" id="PBUlfDyBkOcBYVJKKN0a-2">
                    <mxCell style="verticalAlign=middle;align=center;overflow=width;vsdxID=154;fillColor=none;gradientColor=none;shape=stencil(nZBLDoAgDERP0z3SIyjew0SURgSD+Lu9kMZoXLhwN9O+tukAlrNpJg1SzDH4QW/URgNYgZTkjA4UkwJUgGXng+6DX1zLfmoymdXo17xh5zmRJ6Q42BWCfc2oJfdAr+Yv+AP9Cb7OJ3H/2JG1HNGz/84klThPVCc=);strokeColor=none;points=[];labelBackgroundColor=none;rounded=0;html=1;whiteSpace=wrap;" parent="PBUlfDyBkOcBYVJKKN0a-1" vertex="1">
                        <mxGeometry x="317.5" y="300" width="121" height="44" as="geometry"/>
                    </mxCell>
                </UserObject>
                <UserObject label="&lt;div style=&quot;font-size: 1px&quot;&gt;&lt;font style=&quot;font-size:16.93px;font-family:Calibri;color:#5b9bd5;direction:ltr;letter-spacing:0px;line-height:120%;opacity:1&quot;&gt;&lt;b&gt;PC-Anmeldung&lt;/b&gt;&lt;br&gt;&lt;/font&gt;&lt;/div&gt;" tags="Hintergrund" id="PBUlfDyBkOcBYVJKKN0a-3">
                    <mxCell style="verticalAlign=middle;align=center;overflow=width;vsdxID=155;fillColor=none;gradientColor=none;shape=stencil(nZBLDoAgDERP0z3SIyjew0SURgSD+Lu9kMZoXLhwN9O+tukAlrNpJg1SzDH4QW/URgNYgZTkjA4UkwJUgGXng+6DX1zLfmoymdXo17xh5zmRJ6Q42BWCfc2oJfdAr+Yv+AP9Cb7OJ3H/2JG1HNGz/84klThPVCc=);strokeColor=none;points=[];labelBackgroundColor=none;rounded=0;html=1;whiteSpace=wrap;" parent="PBUlfDyBkOcBYVJKKN0a-1" vertex="1">
                        <mxGeometry x="730.29" y="454" width="121" height="44" as="geometry"/>
                    </mxCell>
                </UserObject>
                <UserObject label="&lt;div style=&quot;font-size: 1px&quot;&gt;&lt;font style=&quot;font-size:16.93px;font-family:Calibri;color:#5b9bd5;direction:ltr;letter-spacing:0px;line-height:120%;opacity:1&quot;&gt;&lt;b&gt;PC-Lauf&amp;nbsp;&lt;/b&gt;&lt;/font&gt;&lt;/div&gt;&lt;div style=&quot;font-size: 1px&quot;&gt;&lt;span style=&quot;color: rgb(91, 155, 213); font-family: Calibri; font-size: 16.93px; letter-spacing: 0px; background-color: initial;&quot;&gt;VPN-Client mit&lt;/span&gt;&lt;/div&gt;&lt;div style=&quot;font-size: 1px&quot;&gt;&lt;span style=&quot;color: rgb(91, 155, 213); font-family: Calibri; font-size: 16.93px; letter-spacing: 0px; background-color: initial;&quot;&gt;weiterleitung&lt;/span&gt;&lt;/div&gt;&lt;div style=&quot;font-size: 1px&quot;&gt;&lt;span style=&quot;color: rgb(91, 155, 213); font-family: Calibri; font-size: 16.93px; letter-spacing: 0px; background-color: initial;&quot;&gt;Printer&lt;/span&gt;&lt;/div&gt;" tags="Hintergrund" id="PBUlfDyBkOcBYVJKKN0a-4">
                    <mxCell style="verticalAlign=middle;align=center;overflow=width;vsdxID=162;fillColor=none;gradientColor=none;shape=stencil(nZBLDoAgDERP0z3SIyjew0SURgSD+Lu9kMZoXLhwN9O+tukAlrNpJg1SzDH4QW/URgNYgZTkjA4UkwJUgGXng+6DX1zLfmoymdXo17xh5zmRJ6Q42BWCfc2oJfdAr+Yv+AP9Cb7OJ3H/2JG1HNGz/84klThPVCc=);strokeColor=none;points=[];labelBackgroundColor=none;rounded=0;html=1;whiteSpace=wrap;" parent="PBUlfDyBkOcBYVJKKN0a-1" vertex="1">
                        <mxGeometry x="489.5" y="430" width="162.5" height="90" as="geometry"/>
                    </mxCell>
                </UserObject>
                <UserObject label="&lt;div style=&quot;font-size: 1px&quot;&gt;&lt;font style=&quot;font-size:19.76px;font-family:Calibri;color:#ffffff;direction:ltr;letter-spacing:0px;line-height:120%;opacity:1&quot;&gt;&lt;b&gt;Netzwerk Layout (Offline-Server) - Schnällschte Jegenstorfer&lt;br&gt;&lt;/b&gt;&lt;/font&gt;&lt;/div&gt;" tags="Hintergrund" id="PBUlfDyBkOcBYVJKKN0a-5">
                    <mxCell style="verticalAlign=middle;align=center;overflow=width;vsdxID=163;fillColor=#a5a5a5;gradientColor=none;shape=stencil(nZBLDoAgDERP0z3SIyjew0SURgSD+Lu9kMZoXLhwN9O+tukAlrNpJg1SzDH4QW/URgNYgZTkjA4UkwJUgGXng+6DX1zLfmoymdXo17xh5zmRJ6Q42BWCfc2oJfdAr+Yv+AP9Cb7OJ3H/2JG1HNGz/84klThPVCc=);strokeColor=#ffffff;points=[];labelBackgroundColor=none;rounded=0;html=1;whiteSpace=wrap;" parent="PBUlfDyBkOcBYVJKKN0a-1" vertex="1">
                        <mxGeometry x="25" y="24" width="1137" height="36" as="geometry"/>
                    </mxCell>
                </UserObject>
                <UserObject label="&lt;div style=&quot;font-size: 1px&quot;&gt;&lt;font style=&quot;font-size:16.93px;font-family:Calibri;color:#41729d;direction:ltr;letter-spacing:0px;line-height:120%;opacity:1&quot;&gt;&lt;b&gt;P1&lt;br/&gt;&lt;/b&gt;&lt;/font&gt;&lt;/div&gt;" tags="Verbinder" id="PBUlfDyBkOcBYVJKKN0a-6">
                    <mxCell style="vsdxID=152;edgeStyle=none;startArrow=none;endArrow=none;startSize=5;endSize=5;strokeWidth=4;strokeColor=#5088bb;spacingTop=0;spacingBottom=0;spacingLeft=0;spacingRight=0;verticalAlign=middle;html=1;labelBackgroundColor=#FFFFFF;rounded=0;align=center;overflow=width;exitX=0.5;exitY=0;exitDx=0;exitDy=0;exitPerimeter=0;entryX=0.5;entryY=1;entryDx=0;entryDy=0;entryPerimeter=0;" parent="PBUlfDyBkOcBYVJKKN0a-1" source="PBUlfDyBkOcBYVJKKN0a-11" target="PBUlfDyBkOcBYVJKKN0a-12" edge="1">
                        <mxGeometry relative="1" as="geometry">
                            <mxPoint x="24" y="28" as="offset"/>
                            <Array as="points"/>
                        </mxGeometry>
                    </mxCell>
                </UserObject>
                <UserObject label="&lt;div style=&quot;font-size: 1px&quot;&gt;&lt;p style=&quot;text-align:center;margin-left:0;margin-right:0;margin-top:0px;margin-bottom:0px;text-indent:0;vertical-align:middle;direction:ltr;&quot;&gt;&lt;font style=&quot;font-size:16.93px;font-family:Calibri;color:#41729d;direction:ltr;letter-spacing:0px;line-height:120%;opacity:1&quot;&gt;192.168.176.1/24&lt;br/&gt;Kein GW&lt;/font&gt;&lt;font style=&quot;font-size:16.93px;font-family:Calibri;color:#41729d;direction:ltr;letter-spacing:0px;line-height:120%;opacity:1&quot;&gt;&lt;b&gt;&lt;br/&gt;&lt;/b&gt;&lt;/font&gt;&lt;/p&gt;&lt;/div&gt;" tags="Verbinder" id="PBUlfDyBkOcBYVJKKN0a-7">
                    <mxCell style="vsdxID=52;edgeStyle=none;startArrow=none;endArrow=none;startSize=5;endSize=5;strokeWidth=4;strokeColor=#5088bb;spacingTop=0;spacingBottom=0;spacingLeft=0;spacingRight=0;verticalAlign=middle;html=1;labelBackgroundColor=#FFFFFF;rounded=0;align=center;overflow=width;" parent="PBUlfDyBkOcBYVJKKN0a-1" source="PBUlfDyBkOcBYVJKKN0a-17" target="PBUlfDyBkOcBYVJKKN0a-16" edge="1">
                        <mxGeometry relative="1" as="geometry">
                            <mxPoint x="1" y="2" as="offset"/>
                            <Array as="points"/>
                        </mxGeometry>
                    </mxCell>
                </UserObject>
                <mxCell id="PBUlfDyBkOcBYVJKKN0a-8" value="&lt;b style=&quot;font-size: 12px;&quot;&gt;WLAN -&amp;gt; LAN&lt;br&gt;Bridge&lt;/b&gt;" style="edgeLabel;html=1;align=center;verticalAlign=middle;resizable=0;points=[];" parent="PBUlfDyBkOcBYVJKKN0a-7" vertex="1" connectable="0">
                    <mxGeometry x="-0.5071" y="2" relative="1" as="geometry">
                        <mxPoint x="7" as="offset"/>
                    </mxGeometry>
                </mxCell>
                <UserObject label="&lt;div style=&quot;font-size: 1px&quot;&gt;&lt;font style=&quot;font-size:16.93px;font-family:Calibri;color:#41729d;direction:ltr;letter-spacing:0px;line-height:120%;opacity:1&quot;&gt;&lt;b&gt;P3&lt;br/&gt;&lt;/b&gt;&lt;/font&gt;&lt;/div&gt;" tags="Verbinder" id="PBUlfDyBkOcBYVJKKN0a-9">
                    <mxCell style="vsdxID=146;edgeStyle=none;startArrow=none;endArrow=none;startSize=5;endSize=5;strokeWidth=4;strokeColor=#5088bb;spacingTop=0;spacingBottom=0;spacingLeft=0;spacingRight=0;verticalAlign=middle;html=1;labelBackgroundColor=#FFFFFF;rounded=0;align=center;overflow=width;exitX=1;exitY=0.5;exitDx=0;exitDy=0;exitPerimeter=0;" parent="PBUlfDyBkOcBYVJKKN0a-1" source="PBUlfDyBkOcBYVJKKN0a-11" target="PBUlfDyBkOcBYVJKKN0a-14" edge="1">
                        <mxGeometry relative="1" as="geometry">
                            <mxPoint x="-15" y="-13" as="offset"/>
                            <Array as="points"/>
                            <mxPoint x="393" y="573" as="sourcePoint"/>
                        </mxGeometry>
                    </mxCell>
                </UserObject>
                <UserObject label="&lt;div style=&quot;font-size: 1px&quot;&gt;&lt;font style=&quot;font-size:16.93px;font-family:Calibri;color:#41729d;direction:ltr;letter-spacing:0px;line-height:120%;opacity:1&quot;&gt;&lt;b&gt;P2&lt;br/&gt;&lt;/b&gt;&lt;/font&gt;&lt;/div&gt;" tags="Verbinder" id="PBUlfDyBkOcBYVJKKN0a-10">
                    <mxCell style="vsdxID=147;edgeStyle=none;startArrow=none;endArrow=none;startSize=5;endSize=5;strokeWidth=4;strokeColor=#5088bb;spacingTop=0;spacingBottom=0;spacingLeft=0;spacingRight=0;verticalAlign=middle;html=1;labelBackgroundColor=#FFFFFF;rounded=0;align=center;overflow=width;exitX=0.5;exitY=0;exitDx=0;exitDy=0;exitPerimeter=0;entryX=0.5;entryY=1;entryDx=0;entryDy=0;entryPerimeter=0;" parent="PBUlfDyBkOcBYVJKKN0a-1" source="PBUlfDyBkOcBYVJKKN0a-15" target="PBUlfDyBkOcBYVJKKN0a-11" edge="1">
                        <mxGeometry relative="1" as="geometry">
                            <mxPoint x="24" y="-54" as="offset"/>
                            <Array as="points"/>
                            <mxPoint x="393" y="728" as="sourcePoint"/>
                        </mxGeometry>
                    </mxCell>
                </UserObject>
                <mxCell id="PBUlfDyBkOcBYVJKKN0a-11" value="" style="sketch=0;points=[[0.015,0.015,0],[0.985,0.015,0],[0.985,0.985,0],[0.015,0.985,0],[0.25,0,0],[0.5,0,0],[0.75,0,0],[1,0.25,0],[1,0.5,0],[1,0.75,0],[0.75,1,0],[0.5,1,0],[0.25,1,0],[0,0.75,0],[0,0.5,0],[0,0.25,0]];verticalLabelPosition=bottom;html=1;verticalAlign=top;aspect=fixed;align=center;pointerEvents=1;shape=mxgraph.cisco19.rect;prIcon=l2_switch;fillColor=#FAFAFA;strokeColor=#005073;" parent="PBUlfDyBkOcBYVJKKN0a-1" vertex="1">
                    <mxGeometry x="343" y="541.4000000000001" width="70" height="70" as="geometry"/>
                </mxCell>
                <mxCell id="PBUlfDyBkOcBYVJKKN0a-12" value="" style="points=[[0.03,0.36,0],[0.18,0,0],[0.5,0.34,0],[0.82,0,0],[0.97,0.36,0],[1,0.67,0],[0.975,0.975,0],[0.5,1,0],[0.025,0.975,0],[0,0.67,0]];verticalLabelPosition=bottom;sketch=0;html=1;verticalAlign=top;aspect=fixed;align=center;pointerEvents=1;shape=mxgraph.cisco19.wireless_access_point;fillColor=#005073;strokeColor=none;" parent="PBUlfDyBkOcBYVJKKN0a-1" vertex="1">
                    <mxGeometry x="343" y="409" width="70" height="70" as="geometry"/>
                </mxCell>
                <mxCell id="PBUlfDyBkOcBYVJKKN0a-13" value="" style="points=[[0,0.58,0],[0.09,0.58,0],[0.36,0.39,0],[0.64,0.195,0],[0.91,0,0],[1,0,0],[1,0.25,0],[1,0.5,0],[1,0.75,0],[1,1,0],[0,1,0],[0.09,1,0],[0.36,1,0],[0.64,1,0],[0.91,1,0],[0,0.79,0]];verticalLabelPosition=bottom;sketch=0;html=1;verticalAlign=top;aspect=fixed;align=center;pointerEvents=1;shape=mxgraph.cisco19.wifi_indicator;fillColor=#005073;strokeColor=none;" parent="PBUlfDyBkOcBYVJKKN0a-1" vertex="1">
                    <mxGeometry x="368" y="394" width="20" height="20" as="geometry"/>
                </mxCell>
                <mxCell id="PBUlfDyBkOcBYVJKKN0a-14" value="192.168.175.20&lt;br style=&quot;border-color: var(--border-color); color: rgb(30, 74, 115); font-family: Verdana; font-size: 11px;&quot;&gt;&lt;font face=&quot;Verdana&quot; color=&quot;#1e4a73&quot;&gt;&lt;span style=&quot;font-size: 11px;&quot;&gt;mit&amp;nbsp;&lt;/span&gt;&lt;/font&gt;offline DB" style="points=[[0.13,0.02,0],[0.5,0,0],[0.87,0.02,0],[0.885,0.4,0],[0.985,0.985,0],[0.5,1,0],[0.015,0.985,0],[0.115,0.4,0]];verticalLabelPosition=bottom;sketch=0;html=1;verticalAlign=top;aspect=fixed;align=center;pointerEvents=1;shape=mxgraph.cisco19.laptop;fillColor=#005073;strokeColor=none;" parent="PBUlfDyBkOcBYVJKKN0a-1" vertex="1">
                    <mxGeometry x="524.75" y="542.8" width="92" height="64.4" as="geometry"/>
                </mxCell>
                <mxCell id="PBUlfDyBkOcBYVJKKN0a-15" value="LP010 (neu)&lt;br style=&quot;border-color: var(--border-color); color: rgb(30, 74, 115); font-family: Verdana; font-size: 11px;&quot;&gt;&lt;span style=&quot;color: rgb(30, 74, 115); font-family: Verdana; font-size: 11px;&quot;&gt;192.168.175.10/24&lt;br&gt;DHCP Reservation&lt;br&gt;&lt;/span&gt;" style="points=[[0.22,0.185,0],[0.5,0,0],[0.78,0.185,0],[0.975,0.49,0],[1,0.73,0],[0.975,0.97,0],[0.5,1,0],[0.025,0.97,0],[0,0.73,0],[0.025,0.49,0]];verticalLabelPosition=bottom;sketch=0;html=1;verticalAlign=top;aspect=fixed;align=center;pointerEvents=1;shape=mxgraph.cisco19.printer;fillColor=#005073;strokeColor=none;" parent="PBUlfDyBkOcBYVJKKN0a-1" vertex="1">
                    <mxGeometry x="343" y="680" width="70" height="63" as="geometry"/>
                </mxCell>
                <mxCell id="PBUlfDyBkOcBYVJKKN0a-16" value="&lt;div style=&quot;border-color: var(--border-color); font-family: Verdana; font-size: 11px;&quot;&gt;&lt;font style=&quot;border-color: var(--border-color); color: rgb(30, 74, 115); direction: ltr; letter-spacing: 0px; line-height: 13.2px; opacity: 1;&quot;&gt;LP011&lt;br style=&quot;border-color: var(--border-color);&quot;&gt;192.168.175.11/24&lt;br style=&quot;border-color: var(--border-color);&quot;&gt;&lt;/font&gt;&lt;/div&gt;&lt;div style=&quot;border-color: var(--border-color); font-family: Verdana; font-size: 11px;&quot;&gt;&lt;font style=&quot;border-color: var(--border-color); color: rgb(30, 74, 115); direction: ltr; letter-spacing: 0px; line-height: 13.2px; opacity: 1;&quot;&gt;DHCP Reservation&lt;/font&gt;&lt;/div&gt;" style="points=[[0.22,0.185,0],[0.5,0,0],[0.78,0.185,0],[0.975,0.49,0],[1,0.73,0],[0.975,0.97,0],[0.5,1,0],[0.025,0.97,0],[0,0.73,0],[0.025,0.49,0]];verticalLabelPosition=bottom;sketch=0;html=1;verticalAlign=top;aspect=fixed;align=center;pointerEvents=1;shape=mxgraph.cisco19.printer;fillColor=#005073;strokeColor=none;" parent="PBUlfDyBkOcBYVJKKN0a-1" vertex="1">
                    <mxGeometry x="980" y="547.5" width="70" height="63" as="geometry"/>
                </mxCell>
                <mxCell id="PBUlfDyBkOcBYVJKKN0a-17" value="&lt;font style=&quot;font-size: 12px;&quot;&gt;192.168.175.21/24&lt;br&gt;DHCP Reservation&lt;br style=&quot;border-color: var(--border-color); color: rgb(30, 74, 115); font-family: Verdana;&quot;&gt;&lt;span style=&quot;color: rgb(30, 74, 115); font-family: Verdana;&quot;&gt;User: sj&lt;/span&gt;&lt;/font&gt;" style="points=[[0.13,0.02,0],[0.5,0,0],[0.87,0.02,0],[0.885,0.4,0],[0.985,0.985,0],[0.5,1,0],[0.015,0.985,0],[0.115,0.4,0]];verticalLabelPosition=bottom;sketch=0;html=1;verticalAlign=top;aspect=fixed;align=center;pointerEvents=1;shape=mxgraph.cisco19.laptop;fillColor=#005073;strokeColor=none;" parent="PBUlfDyBkOcBYVJKKN0a-1" vertex="1">
                    <mxGeometry x="744.505" y="546.4" width="92.57" height="64.8" as="geometry"/>
                </mxCell>
                <mxCell id="PBUlfDyBkOcBYVJKKN0a-18" style="edgeStyle=orthogonalEdgeStyle;rounded=0;orthogonalLoop=1;jettySize=auto;html=1;exitX=1;exitY=0.73;exitDx=0;exitDy=0;exitPerimeter=0;entryX=0.8;entryY=0.733;entryDx=0;entryDy=0;entryPerimeter=0;" parent="PBUlfDyBkOcBYVJKKN0a-1" source="PBUlfDyBkOcBYVJKKN0a-15" target="PBUlfDyBkOcBYVJKKN0a-15" edge="1">
                    <mxGeometry relative="1" as="geometry"/>
                </mxCell>
                <mxCell id="PBUlfDyBkOcBYVJKKN0a-19" value="" style="points=[[0,0.58,0],[0.09,0.58,0],[0.36,0.39,0],[0.64,0.195,0],[0.91,0,0],[1,0,0],[1,0.25,0],[1,0.5,0],[1,0.75,0],[1,1,0],[0,1,0],[0.09,1,0],[0.36,1,0],[0.64,1,0],[0.91,1,0],[0,0.79,0]];verticalLabelPosition=bottom;sketch=0;html=1;verticalAlign=top;aspect=fixed;align=center;pointerEvents=1;shape=mxgraph.cisco19.wifi_indicator;fillColor=#005073;strokeColor=none;" parent="PBUlfDyBkOcBYVJKKN0a-1" vertex="1">
                    <mxGeometry x="780.79" y="524" width="20" height="20" as="geometry"/>
                </mxCell>
                <mxCell id="JjTXra5eDOD3zVe6lgDl-1" value="" style="sketch=0;points=[[0.015,0.015,0],[0.985,0.015,0],[0.985,0.985,0],[0.015,0.985,0],[0.25,0,0],[0.5,0,0],[0.75,0,0],[1,0.25,0],[1,0.5,0],[1,0.75,0],[0.75,1,0],[0.5,1,0],[0.25,1,0],[0,0.75,0],[0,0.5,0],[0,0.25,0]];verticalLabelPosition=bottom;html=1;verticalAlign=top;aspect=fixed;align=center;pointerEvents=1;shape=mxgraph.cisco19.rect;prIcon=firewall;fillColor=#FAFAFA;strokeColor=#005073;" parent="PBUlfDyBkOcBYVJKKN0a-1" vertex="1">
                    <mxGeometry x="190" y="429" width="70" height="54.68" as="geometry"/>
                </mxCell>
                <UserObject label="&lt;div style=&quot;font-size: 1px&quot;&gt;&lt;font style=&quot;font-size:16.93px;font-family:Calibri;color:#41729d;direction:ltr;letter-spacing:0px;line-height:120%;opacity:1&quot;&gt;&lt;b&gt;P1&lt;br/&gt;&lt;/b&gt;&lt;/font&gt;&lt;/div&gt;" tags="Verbinder" id="JjTXra5eDOD3zVe6lgDl-2">
                    <mxCell style="vsdxID=152;edgeStyle=orthogonalEdgeStyle;startArrow=none;endArrow=none;startSize=5;endSize=5;strokeWidth=4;strokeColor=#5088bb;spacingTop=0;spacingBottom=0;spacingLeft=0;spacingRight=0;verticalAlign=middle;html=1;labelBackgroundColor=#FFFFFF;rounded=0;align=center;overflow=width;exitX=0;exitY=0.5;exitDx=0;exitDy=0;exitPerimeter=0;entryX=0.5;entryY=1;entryDx=0;entryDy=0;entryPerimeter=0;" parent="PBUlfDyBkOcBYVJKKN0a-1" source="PBUlfDyBkOcBYVJKKN0a-11" target="JjTXra5eDOD3zVe6lgDl-1" edge="1">
                        <mxGeometry relative="1" as="geometry">
                            <mxPoint x="24" y="28" as="offset"/>
                            <mxPoint x="224.5" y="572" as="sourcePoint"/>
                            <mxPoint x="224.5" y="510" as="targetPoint"/>
                        </mxGeometry>
                    </mxCell>
                </UserObject>
                <mxCell id="JjTXra5eDOD3zVe6lgDl-3" value="Internet" style="shape=cloud;whiteSpace=wrap;html=1;" parent="PBUlfDyBkOcBYVJKKN0a-1" vertex="1">
                    <mxGeometry x="70" y="200" width="120" height="120" as="geometry"/>
                </mxCell>
                <UserObject label="&lt;div style=&quot;font-size: 1px&quot;&gt;&lt;font style=&quot;font-size:16.93px;font-family:Calibri;color:#5b9bd5;direction:ltr;letter-spacing:0px;line-height:120%;opacity:1&quot;&gt;&lt;b&gt;Firewall / Router&lt;/b&gt;&lt;/font&gt;&lt;/div&gt;&lt;div style=&quot;font-size: 1px&quot;&gt;&lt;font style=&quot;font-size:16.93px;font-family:Calibri;color:#5b9bd5;direction:ltr;letter-spacing:0px;line-height:120%;opacity:1&quot;&gt;- DHCP Server&lt;/font&gt;&lt;/div&gt;" tags="Hintergrund" id="JjTXra5eDOD3zVe6lgDl-4">
                    <mxCell style="verticalAlign=middle;align=center;overflow=width;vsdxID=162;fillColor=none;gradientColor=none;shape=stencil(nZBLDoAgDERP0z3SIyjew0SURgSD+Lu9kMZoXLhwN9O+tukAlrNpJg1SzDH4QW/URgNYgZTkjA4UkwJUgGXng+6DX1zLfmoymdXo17xh5zmRJ6Q42BWCfc2oJfdAr+Yv+AP9Cb7OJ3H/2JG1HNGz/84klThPVCc=);strokeColor=none;points=[];labelBackgroundColor=none;rounded=0;html=1;whiteSpace=wrap;" parent="PBUlfDyBkOcBYVJKKN0a-1" vertex="1">
                        <mxGeometry x="50" y="421.34" width="121" height="70" as="geometry"/>
                    </mxCell>
                </UserObject>
                <mxCell id="JjTXra5eDOD3zVe6lgDl-5" value="" style="shape=cylinder;whiteSpace=wrap;html=1;boundedLbl=1;backgroundOutline=1;" parent="PBUlfDyBkOcBYVJKKN0a-1" vertex="1">
                    <mxGeometry x="89" y="100" width="60" height="80" as="geometry"/>
                </mxCell>
                <UserObject label="&lt;div style=&quot;&quot;&gt;&lt;font face=&quot;Calibri&quot; color=&quot;#5b9bd5&quot;&gt;&lt;span style=&quot;font-size: 16.93px;&quot;&gt;&lt;b&gt;Web-Server&lt;/b&gt;&lt;/span&gt;&lt;/font&gt;&lt;/div&gt;&lt;div style=&quot;font-size: 1px&quot;&gt;&lt;font style=&quot;font-size:16.93px;font-family:Calibri;color:#5b9bd5;direction:ltr;letter-spacing:0px;line-height:120%;opacity:1&quot;&gt;- VPN-Server&lt;/font&gt;&lt;/div&gt;" tags="Hintergrund" id="JjTXra5eDOD3zVe6lgDl-6">
                    <mxCell style="verticalAlign=middle;align=center;overflow=width;vsdxID=162;fillColor=none;gradientColor=none;shape=stencil(nZBLDoAgDERP0z3SIyjew0SURgSD+Lu9kMZoXLhwN9O+tukAlrNpJg1SzDH4QW/URgNYgZTkjA4UkwJUgGXng+6DX1zLfmoymdXo17xh5zmRJ6Q42BWCfc2oJfdAr+Yv+AP9Cb7OJ3H/2JG1HNGz/84klThPVCc=);strokeColor=none;points=[];labelBackgroundColor=none;rounded=0;html=1;whiteSpace=wrap;" parent="PBUlfDyBkOcBYVJKKN0a-1" vertex="1">
                        <mxGeometry x="150" y="100" width="121" height="70" as="geometry"/>
                    </mxCell>
                </UserObject>
                <UserObject label="&lt;div style=&quot;font-size: 1px&quot;&gt;&lt;font style=&quot;font-size:16.93px;font-family:Calibri;color:#41729d;direction:ltr;letter-spacing:0px;line-height:120%;opacity:1&quot;&gt;&lt;b&gt;P1&lt;br/&gt;&lt;/b&gt;&lt;/font&gt;&lt;/div&gt;" tags="Verbinder" id="JjTXra5eDOD3zVe6lgDl-7">
                    <mxCell style="vsdxID=152;edgeStyle=none;startArrow=none;endArrow=none;startSize=5;endSize=5;strokeWidth=4;strokeColor=#5088bb;spacingTop=0;spacingBottom=0;spacingLeft=0;spacingRight=0;verticalAlign=middle;html=1;labelBackgroundColor=#FFFFFF;rounded=0;align=center;overflow=width;entryX=0.5;entryY=1;entryDx=0;entryDy=0;exitX=0.4;exitY=0.1;exitDx=0;exitDy=0;exitPerimeter=0;" parent="PBUlfDyBkOcBYVJKKN0a-1" source="JjTXra5eDOD3zVe6lgDl-3" target="JjTXra5eDOD3zVe6lgDl-5" edge="1">
                        <mxGeometry relative="1" as="geometry">
                            <mxPoint x="24" y="28" as="offset"/>
                            <Array as="points"/>
                            <mxPoint x="132" y="200" as="sourcePoint"/>
                            <mxPoint x="110" y="180" as="targetPoint"/>
                        </mxGeometry>
                    </mxCell>
                </UserObject>
                <mxCell id="JjTXra5eDOD3zVe6lgDl-8" style="edgeStyle=orthogonalEdgeStyle;rounded=0;orthogonalLoop=1;jettySize=auto;html=1;exitX=0.55;exitY=0.95;exitDx=0;exitDy=0;exitPerimeter=0;entryX=0.5;entryY=0;entryDx=0;entryDy=0;entryPerimeter=0;dashed=1;endArrow=none;endFill=0;curved=1;startSize=4;strokeWidth=4;strokeColor=#7EA6E0;endSize=4;" parent="PBUlfDyBkOcBYVJKKN0a-1" source="JjTXra5eDOD3zVe6lgDl-3" target="JjTXra5eDOD3zVe6lgDl-1" edge="1">
                    <mxGeometry relative="1" as="geometry">
                        <Array as="points">
                            <mxPoint x="136" y="360"/>
                            <mxPoint x="225" y="360"/>
                        </Array>
                    </mxGeometry>
                </mxCell>
                <mxCell id="JjTXra5eDOD3zVe6lgDl-0" value="LTE" style="points=[[0.005,0.09,0],[0.08,0,0],[0.76,0.25,0],[1,0.92,0],[0.91,0.995,0],[0.57,0.995,0],[0.045,0.955,0],[0.005,0.43,0]];verticalLabelPosition=bottom;sketch=0;html=1;verticalAlign=top;aspect=fixed;align=center;pointerEvents=1;shape=mxgraph.cisco19.3g_4g_indicator;fillColor=#005073;strokeColor=none;" parent="PBUlfDyBkOcBYVJKKN0a-1" vertex="1">
                    <mxGeometry x="190" y="330" width="50" height="50" as="geometry"/>
                </mxCell>
            </root>
        </mxGraphModel>
    </diagram>
    <diagram id="kKGeapixljw4KGF0TbNE" name="Netzwerk">
        <mxGraphModel dx="1386" dy="808" grid="1" gridSize="10" guides="1" tooltips="1" connect="1" arrows="1" fold="1" page="1" pageScale="1" pageWidth="1169" pageHeight="827" math="0" shadow="0">
            <root>
                <mxCell id="0"/>
                <mxCell id="1" parent="0"/>
                <UserObject label="&lt;div style=&quot;font-size: 1px&quot;&gt;&lt;font style=&quot;font-size:16.93px;font-family:Calibri;color:#41729d;direction:ltr;letter-spacing:0px;line-height:120%;opacity:1&quot;&gt;&lt;b&gt;P10&lt;br/&gt;&lt;/b&gt;&lt;/font&gt;&lt;/div&gt;" tags="Verbinder" id="UAM-t7Thda-VaP7H5ASI-45">
                    <mxCell style="vsdxID=35;edgeStyle=none;startArrow=none;endArrow=none;startSize=5;endSize=5;strokeWidth=4;strokeColor=#5088bb;spacingTop=0;spacingBottom=0;spacingLeft=0;spacingRight=0;verticalAlign=middle;html=1;labelBackgroundColor=#FFFFFF;rounded=0;align=center;overflow=width;exitX=0.5;exitY=0.89;exitDx=0;exitDy=0;exitPerimeter=0;entryX=0.5;entryY=0.5;entryDx=0;entryDy=0;entryPerimeter=0;" parent="1" source="UAM-t7Thda-VaP7H5ASI-1" target="UAM-t7Thda-VaP7H5ASI-34" edge="1">
                        <mxGeometry relative="1" as="geometry">
                            <mxPoint x="78" y="-13" as="offset"/>
                            <Array as="points">
                                <mxPoint x="110" y="422.78"/>
                            </Array>
                        </mxGeometry>
                    </mxCell>
                </UserObject>
                <UserObject label="" tags="Hintergrund" id="UAM-t7Thda-VaP7H5ASI-1">
                    <mxCell style="vsdxID=4;fillColor=none;gradientColor=none;strokeColor=none;points=[[0.5,0.5,0]];labelBackgroundColor=#ffffff;rounded=0;html=1;whiteSpace=wrap;" parent="1" vertex="1">
                        <mxGeometry x="60" y="198" width="100" height="100" as="geometry"/>
                    </mxCell>
                </UserObject>
                <mxCell id="UAM-t7Thda-VaP7H5ASI-2" style="vsdxID=5;fillColor=#5b9bd5;gradientColor=none;shape=stencil(UzV2Ls5ILEhVNTIoLinKz04tz0wpyVA1dlE1MsrMy0gtyiwBslSNXVWNndPyi1LTi/JL81Ig/IJEkEoQKze/DGRCBUSfoYEBSI+RQSWED+G5QZTmZOYhKSVTIcwGrErRrSdJMYpSIAPhx7TMnBxIECHLo4cJUAgSnsauAA==);strokeColor=#ffffff;points=[[0.5,0.5,0]];labelBackgroundColor=none;rounded=0;html=1;whiteSpace=wrap;" parent="UAM-t7Thda-VaP7H5ASI-1" vertex="1">
                    <mxGeometry y="10" width="98" height="78" as="geometry"/>
                </mxCell>
                <mxCell id="UAM-t7Thda-VaP7H5ASI-3" style="vsdxID=6;fillColor=#FFFFFF;gradientColor=none;shape=stencil(lZbbTsMwDIafJrdRDs1crsd4j0krtALWqes4vD0tQWKLwX98l3ZfPlnVP9smbs/9/tSZ4M7zND5378Nh7k28NyEMx76bhnk5mbgzcfs4Tt3TNF6Oh/x82q/kenod31bDR77n1hvBfeanNlny328eMvwyHK9g7wAuucnbJta7GS65E1nf1LsZLrmbYNtNvZvhkju0NlG9m+GS2zc23NW7GX7rDumW/rn9p7pgQUqSqzcnVf5IUTOpavbBAr742CUP0h1J52c88G+U9TMe+Ftl/YwH/gBoMY/g359UbSupOgup6iZV3SxjqCmWPOhcLGPAz3jgZxkDfsYDP8sY8DMe+AOgxUyCzp5UIymppgap6iZV3SxjaOCVPJhKLGPAz3jgZxkDfsYDP8sY8DNeObXllaCg3f/ecmbL3oIWvOXElr0k1LscflfevC1f/1aux8urvFrH3Rc=);strokeColor=#FFFFFF;points=[[0.5,0.5,0]];labelBackgroundColor=none;rounded=0;html=1;whiteSpace=wrap;" parent="UAM-t7Thda-VaP7H5ASI-1" vertex="1">
                    <mxGeometry x="1" y="11" width="97" height="77" as="geometry"/>
                </mxCell>
                <UserObject label="" tags="Hintergrund" id="UAM-t7Thda-VaP7H5ASI-5">
                    <mxCell style="vsdxID=128;fillColor=none;gradientColor=none;strokeColor=none;points=[[0.5,0.5,0]];labelBackgroundColor=none;rounded=0;html=1;whiteSpace=wrap;" parent="1" vertex="1">
                        <mxGeometry x="240" y="578" width="100" height="100" as="geometry"/>
                    </mxCell>
                </UserObject>
                <mxCell id="UAM-t7Thda-VaP7H5ASI-6" style="vsdxID=129;fillColor=#5b9bd5;gradientColor=none;shape=stencil(nZLdDoIwDIWfZrfLtio/14jvQWTIIjIyQOHtZW6EDYNE73rar01PWgRJW2YNR4y0nZI3/hR5VyI4IcZEXXIluilCkCJICqn4Vcm+zo1uMk3q6C4fesJg+mKKj5HuYmQ0GfJWZwNXonbgCB/YNnvplZlMTRFwGFqaujgZmCdHNk8HsAD4gJU0wsH2csTbjJIvPubif/Bqi7XthacfvqzTOMAMfPPEd+6eBXbv8tMRd+ApWH6lEFVlXs2tr39rSpm/hPQF);strokeColor=#ffffff;points=[[0.5,0.5,0]];labelBackgroundColor=none;rounded=0;html=1;whiteSpace=wrap;" parent="UAM-t7Thda-VaP7H5ASI-5" vertex="1">
                    <mxGeometry x="2" y="43" width="95" height="43" as="geometry"/>
                </mxCell>
                <mxCell id="UAM-t7Thda-VaP7H5ASI-7" style="vsdxID=130;fillColor=#5b9bd5;gradientColor=none;shape=stencil(pZLbDoMgDIafhluCHCJeO/ceJuIkY2KQnd5+MLIDbLq53f0tX9uftICUY1cPAmA0WqO34igb2wGyAhjLvhNGWqcAqQApW23Exuh934R4qD3p1U4ffIdTqMsQ8jUYnUOcM0iza2YdcCX7J/wP+DbpLZraWAS/2Jj/4kznH0FKIGff+12IRzaceKyylUqFS7i/T+65gAWL2vIcYjrtguOPBZGXxIcT6Qm6VDhfUl0A);strokeColor=#ffffff;points=[[0.5,0.5,0]];labelBackgroundColor=none;rounded=0;html=1;whiteSpace=wrap;" parent="UAM-t7Thda-VaP7H5ASI-5" vertex="1">
                    <mxGeometry x="17" width="65" height="100" as="geometry"/>
                </mxCell>
                <mxCell id="UAM-t7Thda-VaP7H5ASI-8" style="vsdxID=131;fillColor=#aad288;gradientColor=none;shape=stencil(zVbbboMwDP2aPBLlwi3PXfcf0RogGiMo0LX7+4FMBxk3MRW0tzg+sX3MCTHipyqTpUKMVLU17+qmL3WG+AtiTBeZsrpuVoifET8lxqrUmmtxAbuULbJdfZjPNsIdzlFC2jOMfIEdgPkKWGnfGpd9YBmmEaBtB/cFFhy2ZgK2CNEhPHnXlWdNLWttCvB36FzaVHlNPi/JZeq4qptS5WCbDitcZtMnnyUkxoRih1AU4JBP9WgzHzrNZ6XjqwWOPyEm9LAKOfZDt8IgwI9Ah2nCqdDVRNj3cNSgSUrEpTPo5nzAowQ+zr1d4j/VgskjHNM96WzXt1jt964Kd1vOfMzjZ+pnKuBR+pnN/SQmh/7tl9L/8TJMPob/5SIsKXGXi9As+rkh0XkOY8fQ/3vOaLZgRuHnbw==);strokeColor=#ffffff;points=[[0.5,0.5,0]];labelBackgroundColor=none;rounded=0;html=1;whiteSpace=wrap;" parent="UAM-t7Thda-VaP7H5ASI-5" vertex="1">
                    <mxGeometry x="50" y="58" width="33" height="8" as="geometry"/>
                </mxCell>
                <mxCell id="UAM-t7Thda-VaP7H5ASI-9" value="&lt;div style=&quot;font-size: 11px;&quot;&gt;&lt;font style=&quot;font-size: 11px; color: rgb(30, 74, 115); direction: ltr; letter-spacing: 0px; line-height: 120%; opacity: 1;&quot;&gt;LP010 (neu)&lt;br style=&quot;font-size: 11px;&quot;&gt;192.168.175.10&lt;br style=&quot;font-size: 11px;&quot;&gt;DHCP Reservation&lt;br style=&quot;font-size: 11px;&quot;&gt;&lt;/font&gt;&lt;/div&gt;" style="text;vsdxID=128;fillColor=none;gradientColor=none;strokeColor=none;points=[[0.5,0.5,0]];labelBackgroundColor=none;rounded=0;html=1;whiteSpace=wrap;verticalAlign=middle;align=center;overflow=width;;html=1;fontFamily=Verdana;fontSize=11;" parent="UAM-t7Thda-VaP7H5ASI-5" vertex="1">
                    <mxGeometry x="-9.03" y="100" width="118.06" height="62.09" as="geometry"/>
                </mxCell>
                <UserObject label="" tags="Hintergrund" id="UAM-t7Thda-VaP7H5ASI-10">
                    <mxCell style="vsdxID=132;fillColor=none;gradientColor=none;strokeColor=none;points=[[0.5,0.5,0]];labelBackgroundColor=none;rounded=0;html=1;whiteSpace=wrap;" parent="1" vertex="1">
                        <mxGeometry x="1030" y="378" width="100" height="100" as="geometry"/>
                    </mxCell>
                </UserObject>
                <mxCell id="UAM-t7Thda-VaP7H5ASI-11" style="vsdxID=133;fillColor=#5b9bd5;gradientColor=none;shape=stencil(nZLdDoIwDIWfZrfLtio/14jvQWTIIjIyQOHtZW6EDYNE73rar01PWgRJW2YNR4y0nZI3/hR5VyI4IcZEXXIluilCkCJICqn4Vcm+zo1uMk3q6C4fesJg+mKKj5HuYmQ0GfJWZwNXonbgCB/YNnvplZlMTRFwGFqaujgZmCdHNk8HsAD4gJU0wsH2csTbjJIvPubif/Bqi7XthacfvqzTOMAMfPPEd+6eBXbv8tMRd+ApWH6lEFVlXs2tr39rSpm/hPQF);strokeColor=#ffffff;points=[[0.5,0.5,0]];labelBackgroundColor=none;rounded=0;html=1;whiteSpace=wrap;" parent="UAM-t7Thda-VaP7H5ASI-10" vertex="1">
                    <mxGeometry x="2" y="43" width="95" height="43" as="geometry"/>
                </mxCell>
                <mxCell id="UAM-t7Thda-VaP7H5ASI-12" style="vsdxID=134;fillColor=#5b9bd5;gradientColor=none;shape=stencil(pZLbDoMgDIafhluCHCJeO/ceJuIkY2KQnd5+MLIDbLq53f0tX9uftICUY1cPAmA0WqO34igb2wGyAhjLvhNGWqcAqQApW23Exuh934R4qD3p1U4ffIdTqMsQ8jUYnUOcM0iza2YdcCX7J/wP+DbpLZraWAS/2Jj/4kznH0FKIGff+12IRzaceKyylUqFS7i/T+65gAWL2vIcYjrtguOPBZGXxIcT6Qm6VDhfUl0A);strokeColor=#ffffff;points=[[0.5,0.5,0]];labelBackgroundColor=none;rounded=0;html=1;whiteSpace=wrap;" parent="UAM-t7Thda-VaP7H5ASI-10" vertex="1">
                    <mxGeometry x="17" width="65" height="100" as="geometry"/>
                </mxCell>
                <mxCell id="UAM-t7Thda-VaP7H5ASI-13" style="vsdxID=135;fillColor=#aad288;gradientColor=none;shape=stencil(zVbbboMwDP2aPBLlwi3PXfcf0RogGiMo0LX7+4FMBxk3MRW0tzg+sX3MCTHipyqTpUKMVLU17+qmL3WG+AtiTBeZsrpuVoifET8lxqrUmmtxAbuULbJdfZjPNsIdzlFC2jOMfIEdgPkKWGnfGpd9YBmmEaBtB/cFFhy2ZgK2CNEhPHnXlWdNLWttCvB36FzaVHlNPi/JZeq4qptS5WCbDitcZtMnnyUkxoRih1AU4JBP9WgzHzrNZ6XjqwWOPyEm9LAKOfZDt8IgwI9Ah2nCqdDVRNj3cNSgSUrEpTPo5nzAowQ+zr1d4j/VgskjHNM96WzXt1jt964Kd1vOfMzjZ+pnKuBR+pnN/SQmh/7tl9L/8TJMPob/5SIsKXGXi9As+rkh0XkOY8fQ/3vOaLZgRuHnbw==);strokeColor=#ffffff;points=[[0.5,0.5,0]];labelBackgroundColor=none;rounded=0;html=1;whiteSpace=wrap;" parent="UAM-t7Thda-VaP7H5ASI-10" vertex="1">
                    <mxGeometry x="50" y="58" width="33" height="8" as="geometry"/>
                </mxCell>
                <mxCell id="UAM-t7Thda-VaP7H5ASI-14" value="&lt;div style=&quot;font-size: 11px;&quot;&gt;&lt;font style=&quot;font-size: 11px; color: rgb(30, 74, 115); direction: ltr; letter-spacing: 0px; line-height: 120%; opacity: 1;&quot;&gt;LP011&lt;br style=&quot;font-size: 11px;&quot;&gt;192.168.175.11&lt;br style=&quot;font-size: 11px;&quot;&gt;&lt;/font&gt;&lt;/div&gt;&lt;div style=&quot;font-size: 11px;&quot;&gt;&lt;font style=&quot;font-size: 11px; color: rgb(30, 74, 115); direction: ltr; letter-spacing: 0px; line-height: 120%; opacity: 1;&quot;&gt;DHCP Reservation&lt;/font&gt;&lt;/div&gt;" style="text;vsdxID=132;fillColor=none;gradientColor=none;strokeColor=none;points=[[0.5,0.5,0]];labelBackgroundColor=none;rounded=0;html=1;whiteSpace=wrap;verticalAlign=middle;align=center;overflow=width;;html=1;fontSize=11;fontFamily=Verdana;" parent="UAM-t7Thda-VaP7H5ASI-10" vertex="1">
                    <mxGeometry x="-9.03" y="100" width="118.06" height="62.09" as="geometry"/>
                </mxCell>
                <UserObject label="" tags="Hintergrund" id="UAM-t7Thda-VaP7H5ASI-15">
                    <mxCell style="vsdxID=141;fillColor=none;gradientColor=none;strokeColor=none;points=[];labelBackgroundColor=none;rounded=0;html=1;whiteSpace=wrap;" parent="1" vertex="1">
                        <mxGeometry x="730" y="326" width="100" height="72" as="geometry"/>
                    </mxCell>
                </UserObject>
                <mxCell id="UAM-t7Thda-VaP7H5ASI-16" style="vsdxID=142;fillColor=#5b9bd5;gradientColor=none;shape=stencil(hZJNcsIwDIVP461Glox/1pTegymh8TRNGBNauD0JMtTOtHQnyU96XxQpXh/b7aFRhMcxDR/Nd9yNreIXRRT7tklxnCLFG8Xr/ZCa9zSc+p3kh+2snKPP4WuecJY+EyDQ3EV4kQreslcRv52SqLU82gCGs1yXejyTpN5CMFmRS+QAfVaxlDTmtgs/BrtQOnexLzCDBjIVZphI/DNUj2BXNao1gLbGtRZwVeMaDdbVuOWWeKn6w5/5/kUP/3JyNtMBqLYvIbOXB2dr9/v+fl0WVotyCKyfgWoCt1hU+ccyFiMYXZPiv0uqIKfg5wr3sevkiMv35dVOJbl43lwB);strokeColor=none;strokeWidth=9;points=[];labelBackgroundColor=none;rounded=0;html=1;whiteSpace=wrap;" parent="UAM-t7Thda-VaP7H5ASI-15" vertex="1">
                    <mxGeometry width="100" height="30" as="geometry"/>
                </mxCell>
                <mxCell id="UAM-t7Thda-VaP7H5ASI-17" style="vsdxID=143;fillColor=#5b9bd5;gradientColor=none;shape=stencil(hZJBcsIwDEVP463GlmLHWQO9B1NC4yEkjAltevs6VTJYaYGdJH/7ff+Ros212V9qhfo6xP5Uf4XD0CjaKsTQNXUMQ6oU7RRtjn2sP2J/6w7cX/aTcqrO/ef0wsj39HQD9Td3jsBVv5M3Fr/fIqsNCwxCaeYr8wgLQJ6MyBPS4GgWocCMxK1dsJQfP2C6CshLppZAX4L2Epi5mhlGr6B/PtuGLkvGeyAS6VTJiHvmtPRgC+k0mS9IunVWWrUaKvc8n7vkAZmsxOZvLokYwBU5N7ekZMB7CV+C+zelF/uTivvmHUPb8uLm5+tNTSPectr9AA==);strokeColor=none;strokeWidth=9;points=[];labelBackgroundColor=none;rounded=0;html=1;whiteSpace=wrap;" parent="UAM-t7Thda-VaP7H5ASI-15" vertex="1">
                    <mxGeometry x="13" y="18" width="73" height="24" as="geometry"/>
                </mxCell>
                <mxCell id="UAM-t7Thda-VaP7H5ASI-18" style="vsdxID=144;fillColor=#5b9bd5;gradientColor=none;shape=stencil(hVJBcoMwDHyNrxpbKtic0/QfmYYUTylkHNKS3xcqu1juML3Jy0q7WqTocOtO11ahvk1hfG+//HnqFD0rRD90bfDTUik6KjpcxtC+hfE+nPl9Pa3MtfoYP9cJM/fptQP1g18VAbof5IXJr/fAbMMEg1DFjoighqeGoRkZIgM6Qg8UMjNFHQ2EkUE5Y0e2bqAqdLXUdBaMk5q5syhitJaqfxbu/ZCl4wxYEgmlCTtGLYFFadQu3o00W28pJqQGasqMpNWNsqNNtvw3+dQUSp0W/tXODaacHKCV8sXiMqd/rmgptvu7+L7n882/l/e6QHzrdPwG);strokeColor=none;strokeWidth=9;points=[];labelBackgroundColor=none;rounded=0;html=1;whiteSpace=wrap;" parent="UAM-t7Thda-VaP7H5ASI-15" vertex="1">
                    <mxGeometry x="26" y="37" width="47" height="19" as="geometry"/>
                </mxCell>
                <mxCell id="UAM-t7Thda-VaP7H5ASI-19" style="vsdxID=145;fillColor=#5b9bd5;gradientColor=none;shape=stencil(fZHREoIgEEW/hlcGdifSZ7P/cBKTycRBLfv7pJUSp3rby97lwF2GWV8XnWYg+sHZi76bcqgZHhiAaWvtzDBXDHOGWWWdPjs7tiXprvBOX13tzd8w0ZzwEyAepCB9ySM5T6Mjq6SuBK6SxR+OJOkJSKPgECwQESYkuQtEXLd/EFXK9xATRQxMFFcQA99vWghSbJDxLxvTrvLYxYGE2a/ef9nNxSfyyjQNbWzd365oPqL1Yv4E);strokeColor=none;strokeWidth=9;points=[];labelBackgroundColor=none;rounded=0;html=1;whiteSpace=wrap;" parent="UAM-t7Thda-VaP7H5ASI-15" vertex="1">
                    <mxGeometry x="39" y="56" width="21" height="15" as="geometry"/>
                </mxCell>
                <UserObject label="" tags="Hintergrund" id="UAM-t7Thda-VaP7H5ASI-20">
                    <mxCell style="vsdxID=119;fillColor=none;gradientColor=none;strokeColor=none;points=[[0.5,0.5,0]];labelBackgroundColor=none;rounded=0;html=1;whiteSpace=wrap;" parent="1" vertex="1">
                        <mxGeometry x="730" y="378" width="100" height="100" as="geometry"/>
                    </mxCell>
                </UserObject>
                <mxCell id="UAM-t7Thda-VaP7H5ASI-21" style="vsdxID=120;fillColor=#5b9bd5;gradientColor=none;shape=stencil(nVPbEoIgEP0aXndgl7w8d/kPJy2ZTBvUsr8PBy3RtLG3XTgHzjmwjLZlGt0ShrysdHFJHiquUkY7hqjyNNGqMhWjPaPtqdDJWRd1Htv+FrXItroW9/aExvJ4y0D+tJ3gtj9YaKbyAbTf/Asc+CDkPDwUIKVD8EIgf54QAPfW4FepWfTp5meE+8IV4oHcLDodEQQHdJQfa22vEFNKtyShc9/g21HYB4KOi4Y6BAH1EdMQ8f39jAt0ZPIliUJA4CrkI32f98KxBZpAaCaZX39gbfQTgik+k3JSWWYHbbg/niyzZKeS9i8=);strokeColor=#ffffff;points=[[0.5,0.5,0]];labelBackgroundColor=none;rounded=0;html=1;whiteSpace=wrap;" parent="UAM-t7Thda-VaP7H5ASI-20" vertex="1">
                    <mxGeometry y="9" width="100" height="81" as="geometry"/>
                </mxCell>
                <mxCell id="UAM-t7Thda-VaP7H5ASI-22" style="vsdxID=121;fillColor=#FFFFFF;gradientColor=none;shape=stencil(UzV2Ls5ILEhVNTIoLinKz04tz0wpyVA1dlE1MsrMy0gtyiwBslSNXVWNndPyi1LTi/JL81Ig/IJEkEoQKze/DGRCBUSfqZ6BCUiTkUElRMAAzHODqM3JzENSa4Ci0NAAj1KYJFGKLU30LM2IdQR+BwMZCJ+mZebkIMughwlQCBKexq4A);strokeColor=#FFFFFF;points=[[0.5,0.5,0]];labelBackgroundColor=none;rounded=0;html=1;whiteSpace=wrap;" parent="UAM-t7Thda-VaP7H5ASI-20" vertex="1">
                    <mxGeometry x="9" y="71" width="80" height="7" as="geometry"/>
                </mxCell>
                <mxCell id="UAM-t7Thda-VaP7H5ASI-23" style="vsdxID=122;fillColor=#a5a5a5;gradientColor=none;shape=stencil(nZBLDoAgDERP0z3SIyjew0SURgSD+Lu9kMZoXLhwN9O+tukAlrNpJg1SzDH4QW/URgNYgZTkjA4UkwJUgGXng+6DX1zLfmoymdXo17xh5zmRJ6Q42BWCfc2oJfdAr+Yv+AP9Cb7OJ3H/2JG1HNGz/84klThPVCc=);strokeColor=#FFFFFF;points=[[0.5,0.5,0]];labelBackgroundColor=none;rounded=0;html=1;whiteSpace=wrap;" parent="UAM-t7Thda-VaP7H5ASI-20" vertex="1">
                    <mxGeometry x="16" y="17" width="67" height="37" as="geometry"/>
                </mxCell>
                <mxCell id="UAM-t7Thda-VaP7H5ASI-24" value="&lt;div style=&quot;font-size: 11px;&quot;&gt;&lt;font style=&quot;font-size: 11px; color: rgb(30, 74, 115); direction: ltr; letter-spacing: 0px; line-height: 120%; opacity: 1;&quot;&gt;WLAN DHCP&lt;br style=&quot;font-size: 11px;&quot;&gt;User: sj&lt;br style=&quot;font-size: 11px;&quot;&gt;&lt;/font&gt;&lt;/div&gt;" style="text;vsdxID=119;fillColor=none;gradientColor=none;strokeColor=none;points=[[0.5,0.5,0]];labelBackgroundColor=none;rounded=0;html=1;whiteSpace=wrap;verticalAlign=middle;align=center;overflow=width;;html=1;fontSize=11;fontFamily=Verdana;" parent="UAM-t7Thda-VaP7H5ASI-20" vertex="1">
                    <mxGeometry x="7.14" y="100" width="85.72" height="45.16" as="geometry"/>
                </mxCell>
                <UserObject label="" tags="Hintergrund" id="UAM-t7Thda-VaP7H5ASI-25">
                    <mxCell style="vsdxID=115;fillColor=none;gradientColor=none;strokeColor=none;points=[[0.5,0.5,0]];labelBackgroundColor=none;rounded=0;html=1;whiteSpace=wrap;" parent="1" vertex="1">
                        <mxGeometry x="429" y="372" width="100" height="100" as="geometry"/>
                    </mxCell>
                </UserObject>
                <mxCell id="UAM-t7Thda-VaP7H5ASI-26" style="vsdxID=116;fillColor=#5b9bd5;gradientColor=none;shape=stencil(nVPbEoIgEP0aXndgl7w8d/kPJy2ZTBvUsr8PBy3RtLG3XTgHzjmwjLZlGt0ShrysdHFJHiquUkY7hqjyNNGqMhWjPaPtqdDJWRd1Htv+FrXItroW9/aExvJ4y0D+tJ3gtj9YaKbyAbTf/Asc+CDkPDwUIKVD8EIgf54QAPfW4FepWfTp5meE+8IV4oHcLDodEQQHdJQfa22vEFNKtyShc9/g21HYB4KOi4Y6BAH1EdMQ8f39jAt0ZPIliUJA4CrkI32f98KxBZpAaCaZX39gbfQTgik+k3JSWWYHbbg/niyzZKeS9i8=);strokeColor=#ffffff;points=[[0.5,0.5,0]];labelBackgroundColor=none;rounded=0;html=1;whiteSpace=wrap;" parent="UAM-t7Thda-VaP7H5ASI-25" vertex="1">
                    <mxGeometry y="9" width="100" height="81" as="geometry"/>
                </mxCell>
                <mxCell id="UAM-t7Thda-VaP7H5ASI-27" style="vsdxID=117;fillColor=#FFFFFF;gradientColor=none;shape=stencil(UzV2Ls5ILEhVNTIoLinKz04tz0wpyVA1dlE1MsrMy0gtyiwBslSNXVWNndPyi1LTi/JL81Ig/IJEkEoQKze/DGRCBUSfqZ6BCUiTkUElRMAAzHODqM3JzENSa4Ci0NAAj1KYJFGKLU30LM2IdQR+BwMZCJ+mZebkIMughwlQCBKexq4A);strokeColor=#FFFFFF;points=[[0.5,0.5,0]];labelBackgroundColor=none;rounded=0;html=1;whiteSpace=wrap;" parent="UAM-t7Thda-VaP7H5ASI-25" vertex="1">
                    <mxGeometry x="9" y="71" width="80" height="7" as="geometry"/>
                </mxCell>
                <mxCell id="UAM-t7Thda-VaP7H5ASI-28" style="vsdxID=118;fillColor=#a5a5a5;gradientColor=none;shape=stencil(nZBLDoAgDERP0z3SIyjew0SURgSD+Lu9kMZoXLhwN9O+tukAlrNpJg1SzDH4QW/URgNYgZTkjA4UkwJUgGXng+6DX1zLfmoymdXo17xh5zmRJ6Q42BWCfc2oJfdAr+Yv+AP9Cb7OJ3H/2JG1HNGz/84klThPVCc=);strokeColor=#FFFFFF;points=[[0.5,0.5,0]];labelBackgroundColor=none;rounded=0;html=1;whiteSpace=wrap;" parent="UAM-t7Thda-VaP7H5ASI-25" vertex="1">
                    <mxGeometry x="16" y="17" width="67" height="37" as="geometry"/>
                </mxCell>
                <mxCell id="UAM-t7Thda-VaP7H5ASI-29" value="&lt;div style=&quot;font-size: 11px;&quot;&gt;&lt;font style=&quot;font-size: 11px; color: rgb(30, 74, 115); direction: ltr; letter-spacing: 0px; line-height: 120%; opacity: 1;&quot;&gt;192.168.175.20&lt;br style=&quot;font-size: 11px;&quot;&gt;Freigabe:&lt;br style=&quot;font-size: 11px;&quot;&gt;\\192.168.175.20\sqlitedb&lt;br style=&quot;font-size: 11px;&quot;&gt;&lt;/font&gt;&lt;/div&gt;" style="text;vsdxID=115;fillColor=none;gradientColor=none;strokeColor=none;points=[[0.5,0.5,0]];labelBackgroundColor=none;rounded=0;html=1;whiteSpace=wrap;verticalAlign=middle;align=center;overflow=width;;html=1;fontFamily=Verdana;fontSize=11;" parent="UAM-t7Thda-VaP7H5ASI-25" vertex="1">
                    <mxGeometry x="-33.09" y="100" width="166.18" height="62.09" as="geometry"/>
                </mxCell>
                <UserObject label="" tags="Hintergrund" id="UAM-t7Thda-VaP7H5ASI-30">
                    <mxCell style="vsdxID=148;fillColor=none;gradientColor=none;strokeColor=none;points=[[0.5,0.5,0]];labelBackgroundColor=none;rounded=0;html=1;whiteSpace=wrap;" parent="1" vertex="1">
                        <mxGeometry x="229" y="218" width="100" height="100" as="geometry"/>
                    </mxCell>
                </UserObject>
                <mxCell id="UAM-t7Thda-VaP7H5ASI-31" style="vsdxID=149;fillColor=#aad288;gradientColor=none;shape=stencil(lVfbUtwwDP2afdU4Unx7pu1/MGUpO6Uss0ALf195EluysgnhLeuV5JOjo0sOdPPycPt8PKB7eb2cfx//ne5eHw707YB4eno4Xk6v/HSg7we6uT9fjr8u57enu+n3822xLE9/zn9LhPfJL3gIQ/FC9zGdeAduOvkxOfx8u0wew9JlPvIB0E9H7zhbEYxhtqpHA6RxtqL5iC9LsxVJeH394+lJ40VIPd6Qa9Q1vBEGg5fvcMHg5TC+x+sjZG/wKivay5fymY9GXN6vUM5HNEK2fCHE3N9PDoYtwly76qOFHbcBc+oMYEow2AQrGcxHI0G0hCmrNcJ6RUam62uCVB5DU1pjbsYWGUjq4UaEgIv8ooHL0WNa5zcOTSQz3jSCw0/wEvWAGV0ygEuY0RQQQTCC0FZ7Bal9an4DUDSEKZTzEY5Vau3+8vrU3z94yBuEFYo7vtABbvPFqYs9XoxAaYHX5JdF66KBK0b71Jiwgqtwrb2RQ4Yxd/ZjbY1r2WAPowZm0LbT7CGadkpDo6W+nrbaqwbtU8sntdQ3NSqUIlBb7fz2pjuW6H6drkIvdXQNzm2iJXC5R5ti1VtDW4NIqTML1GMVm71MiUdVYYZsqqbgMzIcsPYDqVqlKrouq16G3LOpl9WnaLVLHTuqP1cRBfBm7OleX2dMliZHNvzVxFKURipzarMQCMHgLQMQDd4WRaYO82vxKqu92dU+da1hZZkxzSBT7u8vy0Qy90cw6ZUl4DpdWdqoHZxreFXmZOwli1epoK41vKyZLq6t9vXF0rS/pkflIUuFM+XD3XIxdKKMJkmv6eIl+EZXRrmpthlfS3cd7mLojIslqISxbTks8Gqr3c1G+cheFsySoFHKopNMOZTXN/eXHYA29Ohkz5Q1KG8SxqkzCS4LFi0AY49X72q0MNqnxiFCNPntx4iRg4N+ZZMZuNr6wZtslPFnio1Hvd3YeJKal1NGe7WgXGrpqNmPAtFIoewRS2q94bZFv8pVobbfxzfnc2gduy0zavyhjiAVrsYo9RZ7GTKDWY97bMDM14reG2ipI7oqJH6QT+n70+Pj9CWu/7ef3nw0fbbT9/8=);strokeColor=#ffffff;points=[[0.5,0.5,0]];labelBackgroundColor=none;rounded=0;html=1;whiteSpace=wrap;" parent="UAM-t7Thda-VaP7H5ASI-30" vertex="1">
                    <mxGeometry x="17" width="65" height="50" as="geometry"/>
                </mxCell>
                <mxCell id="UAM-t7Thda-VaP7H5ASI-32" style="vsdxID=150;fillColor=#28669d;gradientColor=none;shape=stencil(pZPdkoIwDIWfpreZ0JRgr119D0dROiI4Bf/eXrBVCe4yzuxdenrSL2lTRfOmWB1zpbFpfb3PL27TFop+lNauKnLv2i5StFA039Y+3/n6VG3C+rjqnX10qM/9CdeQRwxEfZbGW1DM7LFcBnfpqkl3gvi3nQk4+49d1rI++VB6EnZnBthEf5RMCmiDdNUSibcoUAqcRg+NPVHQBgxPsd8ZLwEsS3KWASeSjZJrLFgryThF1RrISi5K5qjXYVUkHd92OupzeHtPSArEkjt8B/qcHfrtebvgPaVbV5bDnfE8d1L4C7S4Aw==);strokeColor=#ffffff;points=[[0.5,0.5,0]];labelBackgroundColor=none;rounded=0;html=1;whiteSpace=wrap;" parent="UAM-t7Thda-VaP7H5ASI-30" vertex="1">
                    <mxGeometry x="44" y="19" width="10" height="22" as="geometry"/>
                </mxCell>
                <mxCell id="UAM-t7Thda-VaP7H5ASI-33" style="vsdxID=151;fillColor=#5b9bd5;gradientColor=none;shape=stencil(UzV2Ls5ILEhVNTIoLinKz04tz0wpyVA1dlE1MsrMy0gtyiwBslSNXVWNndPyi1LTi/JL81Ig/IJEkEoQKze/DGRCBUSfoYEBSI+RQSUq3w2iOCczD0kxCUqNjfSMTFGU41FsZq5nTrRiAi4GMhB+TcvMyYEEFbI8etgAhSDhauwKAA==);strokeColor=#ffffff;points=[[0.5,0.5,0]];labelBackgroundColor=none;rounded=0;html=1;whiteSpace=wrap;" parent="UAM-t7Thda-VaP7H5ASI-30" vertex="1">
                    <mxGeometry x="34" y="42" width="30" height="57" as="geometry"/>
                </mxCell>
                <UserObject label="&lt;div style=&quot;font-size: 1px&quot;&gt;&lt;font style=&quot;font-size:16.93px;font-family:Calibri;color:#5b9bd5;direction:ltr;letter-spacing:0px;line-height:120%;opacity:1&quot;&gt;SSID&lt;br/&gt;muhHTE99&lt;br/&gt;&lt;/font&gt;&lt;/div&gt;" tags="Hintergrund" id="UAM-t7Thda-VaP7H5ASI-39">
                    <mxCell style="verticalAlign=middle;align=center;overflow=width;vsdxID=154;fillColor=none;gradientColor=none;shape=stencil(nZBLDoAgDERP0z3SIyjew0SURgSD+Lu9kMZoXLhwN9O+tukAlrNpJg1SzDH4QW/URgNYgZTkjA4UkwJUgGXng+6DX1zLfmoymdXo17xh5zmRJ6Q42BWCfc2oJfdAr+Yv+AP9Cb7OJ3H/2JG1HNGz/84klThPVCc=);strokeColor=none;points=[];labelBackgroundColor=none;rounded=0;html=1;whiteSpace=wrap;" parent="1" vertex="1">
                        <mxGeometry x="218" y="153" width="121" height="44" as="geometry"/>
                    </mxCell>
                </UserObject>
                <UserObject label="&lt;div style=&quot;font-size: 1px&quot;&gt;&lt;font style=&quot;font-size:16.93px;font-family:Calibri;color:#5b9bd5;direction:ltr;letter-spacing:0px;line-height:120%;opacity:1&quot;&gt;PC-Kasse / Anmeldung&lt;br/&gt;&lt;/font&gt;&lt;/div&gt;" tags="Hintergrund" id="UAM-t7Thda-VaP7H5ASI-40">
                    <mxCell style="verticalAlign=middle;align=center;overflow=width;vsdxID=155;fillColor=none;gradientColor=none;shape=stencil(nZBLDoAgDERP0z3SIyjew0SURgSD+Lu9kMZoXLhwN9O+tukAlrNpJg1SzDH4QW/URgNYgZTkjA4UkwJUgGXng+6DX1zLfmoymdXo17xh5zmRJ6Q42BWCfc2oJfdAr+Yv+AP9Cb7OJ3H/2JG1HNGz/84klThPVCc=);strokeColor=none;points=[];labelBackgroundColor=none;rounded=0;html=1;whiteSpace=wrap;" parent="1" vertex="1">
                        <mxGeometry x="719" y="246" width="121" height="44" as="geometry"/>
                    </mxCell>
                </UserObject>
                <UserObject label="&lt;div style=&quot;font-size: 1px&quot;&gt;&lt;font style=&quot;font-size:16.93px;font-family:Calibri;color:#5b9bd5;direction:ltr;letter-spacing:0px;line-height:120%;opacity:1&quot;&gt;PC-Lauf&lt;br/&gt;&lt;/font&gt;&lt;/div&gt;" tags="Hintergrund" id="UAM-t7Thda-VaP7H5ASI-41">
                    <mxCell style="verticalAlign=middle;align=center;overflow=width;vsdxID=162;fillColor=none;gradientColor=none;shape=stencil(nZBLDoAgDERP0z3SIyjew0SURgSD+Lu9kMZoXLhwN9O+tukAlrNpJg1SzDH4QW/URgNYgZTkjA4UkwJUgGXng+6DX1zLfmoymdXo17xh5zmRJ6Q42BWCfc2oJfdAr+Yv+AP9Cb7OJ3H/2JG1HNGz/84klThPVCc=);strokeColor=none;points=[];labelBackgroundColor=none;rounded=0;html=1;whiteSpace=wrap;" parent="1" vertex="1">
                        <mxGeometry x="418" y="246" width="121" height="44" as="geometry"/>
                    </mxCell>
                </UserObject>
                <UserObject label="&lt;div style=&quot;font-size: 1px&quot;&gt;&lt;font style=&quot;font-size:19.76px;font-family:Calibri;color:#ffffff;direction:ltr;letter-spacing:0px;line-height:120%;opacity:1&quot;&gt;&lt;b&gt;Netzwerk Layout (2023) - Schnällschte Jegenstorfer&lt;br&gt;&lt;/b&gt;&lt;/font&gt;&lt;/div&gt;" tags="Hintergrund" id="UAM-t7Thda-VaP7H5ASI-42">
                    <mxCell style="verticalAlign=middle;align=center;overflow=width;vsdxID=163;fillColor=#a5a5a5;gradientColor=none;shape=stencil(nZBLDoAgDERP0z3SIyjew0SURgSD+Lu9kMZoXLhwN9O+tukAlrNpJg1SzDH4QW/URgNYgZTkjA4UkwJUgGXng+6DX1zLfmoymdXo17xh5zmRJ6Q42BWCfc2oJfdAr+Yv+AP9Cb7OJ3H/2JG1HNGz/84klThPVCc=);strokeColor=#ffffff;points=[];labelBackgroundColor=none;rounded=0;html=1;whiteSpace=wrap;" parent="1" vertex="1">
                        <mxGeometry x="25" y="24" width="1137" height="36" as="geometry"/>
                    </mxCell>
                </UserObject>
                <UserObject label="&lt;div style=&quot;font-size: 1px&quot;&gt;&lt;font style=&quot;font-size:16.93px;font-family:Calibri;color:#41729d;direction:ltr;letter-spacing:0px;line-height:120%;opacity:1&quot;&gt;&lt;b&gt;P1&lt;br/&gt;&lt;/b&gt;&lt;/font&gt;&lt;/div&gt;" tags="Verbinder" id="UAM-t7Thda-VaP7H5ASI-44">
                    <mxCell style="vsdxID=152;edgeStyle=none;startArrow=none;endArrow=none;startSize=5;endSize=5;strokeWidth=4;strokeColor=#5088bb;spacingTop=0;spacingBottom=0;spacingLeft=0;spacingRight=0;verticalAlign=middle;html=1;labelBackgroundColor=#FFFFFF;rounded=0;align=center;overflow=width;exitX=0.5;exitY=0.5;exitDx=0;exitDy=0;exitPerimeter=0;entryX=0.5;entryY=1;entryDx=0;entryDy=0;entryPerimeter=0;" parent="1" source="UAM-t7Thda-VaP7H5ASI-34" target="UAM-t7Thda-VaP7H5ASI-30" edge="1">
                        <mxGeometry relative="1" as="geometry">
                            <mxPoint x="24" y="28" as="offset"/>
                            <Array as="points"/>
                        </mxGeometry>
                    </mxCell>
                </UserObject>
                <UserObject label="&lt;div style=&quot;font-size: 1px&quot;&gt;&lt;p style=&quot;text-align:center;margin-left:0;margin-right:0;margin-top:0px;margin-bottom:0px;text-indent:0;vertical-align:middle;direction:ltr;&quot;&gt;&lt;font style=&quot;font-size:16.93px;font-family:Calibri;color:#41729d;direction:ltr;letter-spacing:0px;line-height:120%;opacity:1&quot;&gt;192.168.176.1/24&lt;br/&gt;Kein GW&lt;/font&gt;&lt;font style=&quot;font-size:16.93px;font-family:Calibri;color:#41729d;direction:ltr;letter-spacing:0px;line-height:120%;opacity:1&quot;&gt;&lt;b&gt;&lt;br/&gt;&lt;/b&gt;&lt;/font&gt;&lt;/p&gt;&lt;/div&gt;" tags="Verbinder" id="UAM-t7Thda-VaP7H5ASI-46">
                    <mxCell style="vsdxID=52;edgeStyle=none;startArrow=none;endArrow=none;startSize=5;endSize=5;strokeWidth=4;strokeColor=#5088bb;spacingTop=0;spacingBottom=0;spacingLeft=0;spacingRight=0;verticalAlign=middle;html=1;labelBackgroundColor=#FFFFFF;rounded=0;align=center;overflow=width;exitX=0.91;exitY=0.5;exitDx=0;exitDy=0;exitPerimeter=0;entryX=0.02;entryY=0.5;entryDx=0;entryDy=0;entryPerimeter=0;" parent="1" source="UAM-t7Thda-VaP7H5ASI-20" target="UAM-t7Thda-VaP7H5ASI-10" edge="1">
                        <mxGeometry relative="1" as="geometry">
                            <mxPoint x="1" y="2" as="offset"/>
                            <Array as="points"/>
                        </mxGeometry>
                    </mxCell>
                </UserObject>
                <mxCell id="h334WVKN5mFHlVLw0uUF-1" value="&lt;b style=&quot;font-size: 12px;&quot;&gt;WLAN -&amp;gt; LAN&lt;br&gt;Bridge&lt;/b&gt;" style="edgeLabel;html=1;align=center;verticalAlign=middle;resizable=0;points=[];" parent="UAM-t7Thda-VaP7H5ASI-46" vertex="1" connectable="0">
                    <mxGeometry x="-0.5071" y="2" relative="1" as="geometry">
                        <mxPoint x="7" as="offset"/>
                    </mxGeometry>
                </mxCell>
                <UserObject label="&lt;div style=&quot;font-size: 1px&quot;&gt;&lt;font style=&quot;font-size:16.93px;font-family:Calibri;color:#41729d;direction:ltr;letter-spacing:0px;line-height:120%;opacity:1&quot;&gt;&lt;b&gt;P3&lt;br/&gt;&lt;/b&gt;&lt;/font&gt;&lt;/div&gt;" tags="Verbinder" id="UAM-t7Thda-VaP7H5ASI-47">
                    <mxCell style="vsdxID=146;edgeStyle=none;startArrow=none;endArrow=none;startSize=5;endSize=5;strokeWidth=4;strokeColor=#5088bb;spacingTop=0;spacingBottom=0;spacingLeft=0;spacingRight=0;verticalAlign=middle;html=1;labelBackgroundColor=#FFFFFF;rounded=0;align=center;overflow=width;exitX=0.5;exitY=0.5;exitDx=0;exitDy=0;exitPerimeter=0;entryX=0.08;entryY=0.51;entryDx=0;entryDy=0;entryPerimeter=0;" parent="1" source="UAM-t7Thda-VaP7H5ASI-34" target="UAM-t7Thda-VaP7H5ASI-25" edge="1">
                        <mxGeometry relative="1" as="geometry">
                            <mxPoint x="-15" y="-13" as="offset"/>
                            <Array as="points"/>
                        </mxGeometry>
                    </mxCell>
                </UserObject>
                <UserObject label="&lt;div style=&quot;font-size: 1px&quot;&gt;&lt;font style=&quot;font-size:16.93px;font-family:Calibri;color:#41729d;direction:ltr;letter-spacing:0px;line-height:120%;opacity:1&quot;&gt;&lt;b&gt;P2&lt;br/&gt;&lt;/b&gt;&lt;/font&gt;&lt;/div&gt;" tags="Verbinder" id="UAM-t7Thda-VaP7H5ASI-48">
                    <mxCell style="vsdxID=147;edgeStyle=none;startArrow=none;endArrow=none;startSize=5;endSize=5;strokeWidth=4;strokeColor=#5088bb;spacingTop=0;spacingBottom=0;spacingLeft=0;spacingRight=0;verticalAlign=middle;html=1;labelBackgroundColor=#FFFFFF;rounded=0;align=center;overflow=width;exitX=0.39;exitY=0;exitDx=0;exitDy=0;exitPerimeter=0;entryX=0.5;entryY=0.5;entryDx=0;entryDy=0;entryPerimeter=0;" parent="1" source="UAM-t7Thda-VaP7H5ASI-5" target="UAM-t7Thda-VaP7H5ASI-34" edge="1">
                        <mxGeometry relative="1" as="geometry">
                            <mxPoint x="24" y="-54" as="offset"/>
                            <Array as="points"/>
                        </mxGeometry>
                    </mxCell>
                </UserObject>
                <UserObject label="" tags="Hintergrund" id="UAM-t7Thda-VaP7H5ASI-34">
                    <mxCell style="vsdxID=123;fillColor=none;gradientColor=none;strokeColor=none;points=[[0.5,0.5,0]];labelBackgroundColor=none;rounded=0;html=1;whiteSpace=wrap;" parent="1" vertex="1">
                        <mxGeometry x="229" y="373" width="100" height="100" as="geometry"/>
                    </mxCell>
                </UserObject>
                <mxCell id="UAM-t7Thda-VaP7H5ASI-35" style="vsdxID=124;fillColor=#5b9bd5;gradientColor=none;shape=stencil(nZJNDsIgEIVPw5bAoGLXtd6jSakQERpK/bm9IDG2mNbY3czwvZc3YRAre1l3AgHpvbNncVONl4gdEIAyUjjlQ4VYhVjZWidOzg6mSX1XRzJWF3uNDvekKwBDEVVAHmlCCXn1x4RrZcb4Jsf3HO/YvGCLOf2H5zm/HOdX+umyZJqEYg7z3m+nlfhC6pXgV4BQfL61VVqnqxi/52cQRumEWPUE);strokeColor=#ffffff;points=[[0.5,0.5,0]];labelBackgroundColor=none;rounded=0;html=1;whiteSpace=wrap;" parent="UAM-t7Thda-VaP7H5ASI-34" vertex="1">
                    <mxGeometry y="33" width="100" height="32" as="geometry"/>
                </mxCell>
                <mxCell id="UAM-t7Thda-VaP7H5ASI-36" style="vsdxID=125;fillColor=#aad288;gradientColor=none;shape=stencil(nZBLDoAgDERP0z3SIyjew0SURgSD+Lu9kMZoXLhwN9O+tukAlrNpJg1SzDH4QW/URgNYgZTkjA4UkwJUgGXng+6DX1zLfmoymdXo17xh5zmRJ6Q42BWCfc2oJfdAr+Yv+AP9Cb7OJ3H/2JG1HNGz/84klThPVCc=);strokeColor=#ffffff;points=[[0.5,0.5,0]];labelBackgroundColor=none;rounded=0;html=1;whiteSpace=wrap;" parent="UAM-t7Thda-VaP7H5ASI-34" vertex="1">
                    <mxGeometry x="77" y="38" width="17" height="16" as="geometry"/>
                </mxCell>
                <mxCell id="UAM-t7Thda-VaP7H5ASI-37" style="vsdxID=126;fillColor=#FFFFFF;gradientColor=none;shape=stencil(pVhdc4IwEPw1vN6EXAjwbNv/4YxYmVpx0H79+4YynSo33rnNW4Rd3OxC7pKCV6fd+tgV3p3O4/DSffSb867gh8L7/rDrxv6cRgU/FrzaDmP3PA5vh838+7iekNPodXifnvA580qmUE8s777mK7Ekrn6uPM2EfX+4ILj/g5tIdbwNZqpy4KVzt8EttTEDbUiRJsIEYeR1TFxRiRjvS4qcRzCm4JOiTIKaASdBGWjr5Vn6ieKNvKr0uID4H5g89B1KgjGFkG5nEtQIqiQIyFfCDTnSUphghFY3xFAGMVCbhTdmEBuCZizwagJ1oAbIV8INNdJOmGAE9qv3TvvT31fQRykJxgxaRy6ToBemCBW9JdqqSg6q16b7eliKcOk7BE6VJjDiOUzghqLy3gjjUbwhaGklCL8y01oCFefFcoZgDc1iKUPxhuVyNYMJhiJpJUxQgpLFTTFf9goQ2NAt+wSYYHgvewWYYEiSdsIEJSzRPSr2y0YcAhuyZRMOEwzrRSeO4g1BwksUr+Qkt2WK93dXM2itXu5qQbhVaJYbWxRvVRphIEy4MjIN/g4utv1+f3lnecSRLs3HI/z4DQ==);strokeColor=#FFFFFF;points=[[0.5,0.5,0]];labelBackgroundColor=none;rounded=0;html=1;whiteSpace=wrap;" parent="UAM-t7Thda-VaP7H5ASI-34" vertex="1">
                    <mxGeometry x="7" y="40" width="52" height="13" as="geometry"/>
                </mxCell>
                <mxCell id="UAM-t7Thda-VaP7H5ASI-38" style="vsdxID=127;fillColor=#FFFFFF;gradientColor=none;shape=stencil(lVbbbsMgDP2avFpgc33uuv+o1HSN1jVVmu7y94NF1UpQAb8R8DHGPj5OR5vrcXfpOxTXeRrf+69hPx87eukQh/Oxn4Y5rDradrQ5jFP/No238375vuyiZVx9jJ/Rw/eC0xqUiygUP8uOMqDpb+d1AZyG8wPACiBKAChByucAZyGepQDhCjc4UCYBEILGwg0OjOYApBCJuTSApujfJvaiHDy2GofUyDSXUgIVIjEahOUAdPpQChfq59akwCPHvURwrHhC6bVrTU/01WrLKmh0zCJMDFuxGIZg08RUSI8ejFkDSm2l1D2AxsZFDUYmgMBV5zlvCADPypKxd3VprEMFkFbZEVjFoM+97RuZWTTPmR9VqBANCSZg1bpBqH2BDsavpaTiPteeCiBXtmKCMtEsp1OwSpsrfoU4+UypAPKpVSG/VUCe014Nkzcs/uf2YTidHk/WEz5sLX8HtP0F);strokeColor=#FFFFFF;points=[[0.5,0.5,0]];labelBackgroundColor=none;rounded=0;html=1;whiteSpace=wrap;" parent="UAM-t7Thda-VaP7H5ASI-34" vertex="1">
                    <mxGeometry x="78" y="41" width="14" height="10" as="geometry"/>
                </mxCell>
                <mxCell id="IjMhNP4k-2TbE1x6ixLK-2" value="P01" style="text;whiteSpace=wrap;fontStyle=1;fontSize=14;" parent="UAM-t7Thda-VaP7H5ASI-34" vertex="1">
                    <mxGeometry x="51" width="30" height="30" as="geometry"/>
                </mxCell>
                <mxCell id="IjMhNP4k-2TbE1x6ixLK-3" value="P02" style="text;whiteSpace=wrap;fontStyle=1;fontSize=14;" parent="UAM-t7Thda-VaP7H5ASI-34" vertex="1">
                    <mxGeometry x="18" y="70" width="30" height="30" as="geometry"/>
                </mxCell>
                <mxCell id="IjMhNP4k-2TbE1x6ixLK-1" value="P10" style="text;whiteSpace=wrap;fontStyle=1;fontSize=14;" parent="1" vertex="1">
                    <mxGeometry x="190" y="384" width="30" height="26" as="geometry"/>
                </mxCell>
                <mxCell id="IjMhNP4k-2TbE1x6ixLK-5" value="P03" style="text;whiteSpace=wrap;fontStyle=1;fontSize=14;" parent="1" vertex="1">
                    <mxGeometry x="339" y="390" width="30" height="30" as="geometry"/>
                </mxCell>
                <mxCell id="UAM-t7Thda-VaP7H5ASI-4" value="&lt;div style=&quot;font-size: 11px;&quot;&gt;&lt;p style=&quot;text-align: center; margin: 0px; text-indent: 0px; vertical-align: middle; direction: ltr; font-size: 11px;&quot;&gt;&lt;font style=&quot;font-size: 11px; color: rgb(30, 74, 115); direction: ltr; letter-spacing: 0px; line-height: 120%; opacity: 1;&quot;&gt;&lt;b style=&quot;font-size: 11px;&quot;&gt;Firewall&lt;br style=&quot;font-size: 11px;&quot;&gt;&lt;/b&gt;&lt;/font&gt;&lt;font style=&quot;font-size: 11px; color: rgb(30, 74, 115); direction: ltr; letter-spacing: 0px; line-height: 120%; opacity: 1;&quot;&gt;DHCP Server&lt;br style=&quot;font-size: 11px;&quot;&gt;VLAN 175, 192.168.175.1/24&lt;br style=&quot;font-size: 11px;&quot;&gt;&lt;/font&gt;&lt;/p&gt;&lt;/div&gt;" style="text;vsdxID=4;points=[[0.5,0.5,0]];labelBackgroundColor=#ffffff;rounded=0;html=1;whiteSpace=wrap;verticalAlign=middle;align=center;overflow=width;;html=1;fillColor=#FFFFFF;fillStyle=solid;fontFamily=Verdana;fontSize=11;" parent="1" vertex="1">
                    <mxGeometry x="20.5" y="135.91" width="179.01" height="62.09" as="geometry"/>
                </mxCell>
                <mxCell id="IjMhNP4k-2TbE1x6ixLK-7" value="Lan1" style="text;whiteSpace=wrap;fontStyle=1;fontSize=14;" parent="1" vertex="1">
                    <mxGeometry x="120" y="298" width="30" height="26" as="geometry"/>
                </mxCell>
            </root>
        </mxGraphModel>
    </diagram>
</mxfile>